solid Diamonds
   facet normal 8.944272e-001 4.472136e-001 0.000000e+000
      outer loop
         vertex 1.551304e+003 1.397605e+003 1.990783e+003
         vertex 1.541354e+003 1.417505e+003 2.000683e+003
         vertex 1.551304e+003 1.397605e+003 2.010583e+003
      endloop
   endfacet
   facet normal 8.944272e-001 -4.472136e-001 0.000000e+000
      outer loop
         vertex 1.551304e+003 1.397605e+003 2.010583e+003
         vertex 1.541354e+003 1.377705e+003 2.000683e+003
         vertex 1.551304e+003 1.397605e+003 1.990783e+003
      endloop
   endfacet
   facet normal 0.000000e+000 -4.454131e-001 -8.953252e-001
      outer loop
         vertex 1.531304e+003 1.397605e+003 1.990783e+003
         vertex 1.551304e+003 1.397605e+003 1.990783e+003
         vertex 1.541254e+003 1.377705e+003 2.000683e+003
      endloop
   endfacet
   facet normal 0.000000e+000 -4.454131e-001 -8.953252e-001
      outer loop
         vertex 1.541254e+003 1.377705e+003 2.000683e+003
         vertex 1.551304e+003 1.397605e+003 1.990783e+003
         vertex 1.541354e+003 1.377705e+003 2.000683e+003
      endloop
   endfacet
   facet normal 0.000000e+000 4.454131e-001 -8.953252e-001
      outer loop
         vertex 1.541254e+003 1.417505e+003 2.000683e+003
         vertex 1.541354e+003 1.417505e+003 2.000683e+003
         vertex 1.531304e+003 1.397605e+003 1.990783e+003
      endloop
   endfacet
   facet normal 0.000000e+000 4.454131e-001 -8.953252e-001
      outer loop
         vertex 1.531304e+003 1.397605e+003 1.990783e+003
         vertex 1.541354e+003 1.417505e+003 2.000683e+003
         vertex 1.551304e+003 1.397605e+003 1.990783e+003
      endloop
   endfacet
   facet normal -7.053234e-001 0.000000e+000 7.088857e-001
      outer loop
         vertex 1.541279e+003 1.377755e+003 2.000708e+003
         vertex 1.551204e+003 1.397605e+003 2.010583e+003
         vertex 1.531304e+003 1.397605e+003 1.990783e+003
      endloop
   endfacet
   facet normal -7.053234e-001 0.000000e+000 7.088857e-001
      outer loop
         vertex 1.531304e+003 1.397605e+003 1.990783e+003
         vertex 1.551204e+003 1.397605e+003 2.010583e+003
         vertex 1.541254e+003 1.417505e+003 2.000683e+003
      endloop
   endfacet
   facet normal 8.944272e-001 4.472136e-001 0.000000e+000
      outer loop
         vertex 1.326233e+003 1.397605e+003 1.766842e+003
         vertex 1.316283e+003 1.417505e+003 1.776742e+003
         vertex 1.326233e+003 1.397605e+003 1.786642e+003
      endloop
   endfacet
   facet normal 8.944272e-001 -4.472136e-001 0.000000e+000
      outer loop
         vertex 1.326233e+003 1.397605e+003 1.786642e+003
         vertex 1.316283e+003 1.377705e+003 1.776742e+003
         vertex 1.326233e+003 1.397605e+003 1.766842e+003
      endloop
   endfacet
   facet normal 0.000000e+000 -4.454131e-001 -8.953252e-001
      outer loop
         vertex 1.306233e+003 1.397605e+003 1.766842e+003
         vertex 1.326233e+003 1.397605e+003 1.766842e+003
         vertex 1.316183e+003 1.377705e+003 1.776742e+003
      endloop
   endfacet
   facet normal 0.000000e+000 -4.454131e-001 -8.953252e-001
      outer loop
         vertex 1.316183e+003 1.377705e+003 1.776742e+003
         vertex 1.326233e+003 1.397605e+003 1.766842e+003
         vertex 1.316283e+003 1.377705e+003 1.776742e+003
      endloop
   endfacet
   facet normal 0.000000e+000 4.454131e-001 -8.953252e-001
      outer loop
         vertex 1.316183e+003 1.417505e+003 1.776742e+003
         vertex 1.316283e+003 1.417505e+003 1.776742e+003
         vertex 1.306233e+003 1.397605e+003 1.766842e+003
      endloop
   endfacet
   facet normal 0.000000e+000 4.454131e-001 -8.953252e-001
      outer loop
         vertex 1.306233e+003 1.397605e+003 1.766842e+003
         vertex 1.316283e+003 1.417505e+003 1.776742e+003
         vertex 1.326233e+003 1.397605e+003 1.766842e+003
      endloop
   endfacet
   facet normal -7.053234e-001 0.000000e+000 7.088857e-001
      outer loop
         vertex 1.316208e+003 1.377755e+003 1.776767e+003
         vertex 1.326133e+003 1.397605e+003 1.786642e+003
         vertex 1.306233e+003 1.397605e+003 1.766842e+003
      endloop
   endfacet
   facet normal -7.053234e-001 0.000000e+000 7.088857e-001
      outer loop
         vertex 1.306233e+003 1.397605e+003 1.766842e+003
         vertex 1.326133e+003 1.397605e+003 1.786642e+003
         vertex 1.316183e+003 1.417505e+003 1.776742e+003
      endloop
   endfacet
   facet normal 8.944272e-001 4.472136e-001 0.000000e+000
      outer loop
         vertex 1.101162e+003 1.397605e+003 1.542902e+003
         vertex 1.091212e+003 1.417505e+003 1.552802e+003
         vertex 1.101162e+003 1.397605e+003 1.562702e+003
      endloop
   endfacet
   facet normal 8.944272e-001 -4.472136e-001 0.000000e+000
      outer loop
         vertex 1.101162e+003 1.397605e+003 1.562702e+003
         vertex 1.091212e+003 1.377705e+003 1.552802e+003
         vertex 1.101162e+003 1.397605e+003 1.542902e+003
      endloop
   endfacet
   facet normal 0.000000e+000 -4.454131e-001 -8.953252e-001
      outer loop
         vertex 1.081162e+003 1.397605e+003 1.542902e+003
         vertex 1.101162e+003 1.397605e+003 1.542902e+003
         vertex 1.091112e+003 1.377705e+003 1.552802e+003
      endloop
   endfacet
   facet normal 0.000000e+000 -4.454131e-001 -8.953252e-001
      outer loop
         vertex 1.091112e+003 1.377705e+003 1.552802e+003
         vertex 1.101162e+003 1.397605e+003 1.542902e+003
         vertex 1.091212e+003 1.377705e+003 1.552802e+003
      endloop
   endfacet
   facet normal 0.000000e+000 4.454131e-001 -8.953252e-001
      outer loop
         vertex 1.091112e+003 1.417505e+003 1.552802e+003
         vertex 1.091212e+003 1.417505e+003 1.552802e+003
         vertex 1.081162e+003 1.397605e+003 1.542902e+003
      endloop
   endfacet
   facet normal 0.000000e+000 4.454131e-001 -8.953252e-001
      outer loop
         vertex 1.081162e+003 1.397605e+003 1.542902e+003
         vertex 1.091212e+003 1.417505e+003 1.552802e+003
         vertex 1.101162e+003 1.397605e+003 1.542902e+003
      endloop
   endfacet
   facet normal -7.053234e-001 0.000000e+000 7.088857e-001
      outer loop
         vertex 1.091137e+003 1.377755e+003 1.552827e+003
         vertex 1.101062e+003 1.397605e+003 1.562702e+003
         vertex 1.081162e+003 1.397605e+003 1.542902e+003
      endloop
   endfacet
   facet normal -7.053234e-001 0.000000e+000 7.088857e-001
      outer loop
         vertex 1.081162e+003 1.397605e+003 1.542902e+003
         vertex 1.101062e+003 1.397605e+003 1.562702e+003
         vertex 1.091112e+003 1.417505e+003 1.552802e+003
      endloop
   endfacet
   facet normal 8.944272e-001 4.472136e-001 0.000000e+000
      outer loop
         vertex 6.510193e+002 1.397605e+003 1.095022e+003
         vertex 6.410693e+002 1.417505e+003 1.104922e+003
         vertex 6.510193e+002 1.397605e+003 1.114822e+003
      endloop
   endfacet
   facet normal 8.944272e-001 -4.472136e-001 0.000000e+000
      outer loop
         vertex 6.510193e+002 1.397605e+003 1.114822e+003
         vertex 6.410693e+002 1.377705e+003 1.104922e+003
         vertex 6.510193e+002 1.397605e+003 1.095022e+003
      endloop
   endfacet
   facet normal 0.000000e+000 -4.454131e-001 -8.953252e-001
      outer loop
         vertex 6.310193e+002 1.397605e+003 1.095022e+003
         vertex 6.510193e+002 1.397605e+003 1.095022e+003
         vertex 6.409694e+002 1.377705e+003 1.104922e+003
      endloop
   endfacet
   facet normal 0.000000e+000 -4.454131e-001 -8.953252e-001
      outer loop
         vertex 6.409694e+002 1.377705e+003 1.104922e+003
         vertex 6.510193e+002 1.397605e+003 1.095022e+003
         vertex 6.410693e+002 1.377705e+003 1.104922e+003
      endloop
   endfacet
   facet normal 0.000000e+000 4.454131e-001 -8.953252e-001
      outer loop
         vertex 6.409694e+002 1.417505e+003 1.104922e+003
         vertex 6.410693e+002 1.417505e+003 1.104922e+003
         vertex 6.310193e+002 1.397605e+003 1.095022e+003
      endloop
   endfacet
   facet normal 0.000000e+000 4.454131e-001 -8.953252e-001
      outer loop
         vertex 6.310193e+002 1.397605e+003 1.095022e+003
         vertex 6.410693e+002 1.417505e+003 1.104922e+003
         vertex 6.510193e+002 1.397605e+003 1.095022e+003
      endloop
   endfacet
   facet normal -7.053234e-001 0.000000e+000 7.088857e-001
      outer loop
         vertex 6.409944e+002 1.377755e+003 1.104947e+003
         vertex 6.509193e+002 1.397605e+003 1.114822e+003
         vertex 6.310193e+002 1.397605e+003 1.095022e+003
      endloop
   endfacet
   facet normal -7.053234e-001 0.000000e+000 7.088857e-001
      outer loop
         vertex 6.310193e+002 1.397605e+003 1.095022e+003
         vertex 6.509193e+002 1.397605e+003 1.114822e+003
         vertex 6.409694e+002 1.417505e+003 1.104922e+003
      endloop
   endfacet
   facet normal 8.944272e-001 4.472136e-001 0.000000e+000
      outer loop
         vertex 4.259482e+002 1.397605e+003 8.710817e+002
         vertex 4.159981e+002 1.417505e+003 8.809817e+002
         vertex 4.259482e+002 1.397605e+003 8.908817e+002
      endloop
   endfacet
   facet normal 8.944272e-001 -4.472136e-001 0.000000e+000
      outer loop
         vertex 4.259482e+002 1.397605e+003 8.908817e+002
         vertex 4.159981e+002 1.377705e+003 8.809817e+002
         vertex 4.259482e+002 1.397605e+003 8.710817e+002
      endloop
   endfacet
   facet normal 0.000000e+000 -4.454131e-001 -8.953252e-001
      outer loop
         vertex 4.059482e+002 1.397605e+003 8.710817e+002
         vertex 4.259482e+002 1.397605e+003 8.710817e+002
         vertex 4.158981e+002 1.377705e+003 8.809817e+002
      endloop
   endfacet
   facet normal 0.000000e+000 -4.454131e-001 -8.953252e-001
      outer loop
         vertex 4.158981e+002 1.377705e+003 8.809817e+002
         vertex 4.259482e+002 1.397605e+003 8.710817e+002
         vertex 4.159981e+002 1.377705e+003 8.809817e+002
      endloop
   endfacet
   facet normal 0.000000e+000 4.454131e-001 -8.953252e-001
      outer loop
         vertex 4.158981e+002 1.417505e+003 8.809817e+002
         vertex 4.159981e+002 1.417505e+003 8.809817e+002
         vertex 4.059482e+002 1.397605e+003 8.710817e+002
      endloop
   endfacet
   facet normal 0.000000e+000 4.454131e-001 -8.953252e-001
      outer loop
         vertex 4.059482e+002 1.397605e+003 8.710817e+002
         vertex 4.159981e+002 1.417505e+003 8.809817e+002
         vertex 4.259482e+002 1.397605e+003 8.710817e+002
      endloop
   endfacet
   facet normal -7.053234e-001 0.000000e+000 7.088857e-001
      outer loop
         vertex 4.159232e+002 1.377755e+003 8.810066e+002
         vertex 4.258481e+002 1.397605e+003 8.908817e+002
         vertex 4.059482e+002 1.397605e+003 8.710817e+002
      endloop
   endfacet
   facet normal -7.053234e-001 0.000000e+000 7.088857e-001
      outer loop
         vertex 4.059482e+002 1.397605e+003 8.710817e+002
         vertex 4.258481e+002 1.397605e+003 8.908817e+002
         vertex 4.158981e+002 1.417505e+003 8.809817e+002
      endloop
   endfacet
   facet normal 8.944272e-001 4.472136e-001 0.000000e+000
      outer loop
         vertex 2.008770e+002 1.397605e+003 6.471415e+002
         vertex 1.909269e+002 1.417505e+003 6.570416e+002
         vertex 2.008770e+002 1.397605e+003 6.669415e+002
      endloop
   endfacet
   facet normal 8.944272e-001 -4.472136e-001 0.000000e+000
      outer loop
         vertex 2.008770e+002 1.397605e+003 6.669415e+002
         vertex 1.909269e+002 1.377705e+003 6.570416e+002
         vertex 2.008770e+002 1.397605e+003 6.471415e+002
      endloop
   endfacet
   facet normal 0.000000e+000 -4.454131e-001 -8.953252e-001
      outer loop
         vertex 1.808770e+002 1.397605e+003 6.471415e+002
         vertex 2.008770e+002 1.397605e+003 6.471415e+002
         vertex 1.908269e+002 1.377705e+003 6.570416e+002
      endloop
   endfacet
   facet normal 0.000000e+000 -4.454131e-001 -8.953252e-001
      outer loop
         vertex 1.908269e+002 1.377705e+003 6.570416e+002
         vertex 2.008770e+002 1.397605e+003 6.471415e+002
         vertex 1.909269e+002 1.377705e+003 6.570416e+002
      endloop
   endfacet
   facet normal 0.000000e+000 4.454131e-001 -8.953252e-001
      outer loop
         vertex 1.908269e+002 1.417505e+003 6.570416e+002
         vertex 1.909269e+002 1.417505e+003 6.570416e+002
         vertex 1.808770e+002 1.397605e+003 6.471415e+002
      endloop
   endfacet
   facet normal 0.000000e+000 4.454131e-001 -8.953252e-001
      outer loop
         vertex 1.808770e+002 1.397605e+003 6.471415e+002
         vertex 1.909269e+002 1.417505e+003 6.570416e+002
         vertex 2.008770e+002 1.397605e+003 6.471415e+002
      endloop
   endfacet
   facet normal -7.053234e-001 0.000000e+000 7.088857e-001
      outer loop
         vertex 1.908521e+002 1.377755e+003 6.570665e+002
         vertex 2.007769e+002 1.397605e+003 6.669415e+002
         vertex 1.808770e+002 1.397605e+003 6.471415e+002
      endloop
   endfacet
   facet normal -7.053234e-001 0.000000e+000 7.088857e-001
      outer loop
         vertex 1.808770e+002 1.397605e+003 6.471415e+002
         vertex 2.007769e+002 1.397605e+003 6.669415e+002
         vertex 1.908269e+002 1.417505e+003 6.570416e+002
      endloop
   endfacet
   facet normal 4.938482e-001 7.707306e-001 4.026021e-001
      outer loop
         vertex 2.003212e+003 2.359772e+001 1.536593e+003
         vertex 1.986046e+003 2.563703e+001 1.553745e+003
         vertex 2.006748e+003 1.284552e+001 1.552838e+003
      endloop
   endfacet
   facet normal 9.771153e-001 1.958038e-001 -8.310573e-002
      outer loop
         vertex 2.006748e+003 1.284552e+001 1.552838e+003
         vertex 2.007551e+003 5.412102e-002 1.532132e+003
         vertex 2.003212e+003 2.359772e+001 1.536593e+003
      endloop
   endfacet
   facet normal 8.075212e-002 1.998896e-001 -9.764852e-001
      outer loop
         vertex 1.986766e+003 1.279151e+001 1.533020e+003
         vertex 2.003212e+003 2.359772e+001 1.536593e+003
         vertex 2.007468e+003 0.000000e+000 1.532114e+003
      endloop
   endfacet
   facet normal 8.075212e-002 1.998896e-001 -9.764852e-001
      outer loop
         vertex 2.007468e+003 0.000000e+000 1.532114e+003
         vertex 2.003212e+003 2.359772e+001 1.536593e+003
         vertex 2.007551e+003 5.412102e-002 1.532132e+003
      endloop
   endfacet
   facet normal -4.005693e-001 7.725015e-001 -4.927329e-001
      outer loop
         vertex 1.985964e+003 2.558303e+001 1.553727e+003
         vertex 1.986046e+003 2.563703e+001 1.553745e+003
         vertex 1.986766e+003 1.279151e+001 1.533020e+003
      endloop
   endfacet
   facet normal -4.005693e-001 7.725015e-001 -4.927329e-001
      outer loop
         vertex 1.986766e+003 1.279151e+001 1.533020e+003
         vertex 1.986046e+003 2.563703e+001 1.553745e+003
         vertex 2.003212e+003 2.359772e+001 1.536593e+003
      endloop
   endfacet
   facet normal -4.533732e-001 -7.660445e-001 4.556629e-001
      outer loop
         vertex 2.007466e+003 3.230572e-002 1.532166e+003
         vertex 2.006666e+003 1.279151e+001 1.552820e+003
         vertex 1.986766e+003 1.279151e+001 1.533020e+003
      endloop
   endfacet
   facet normal -4.533732e-001 -7.660445e-001 4.556629e-001
      outer loop
         vertex 1.986766e+003 1.279151e+001 1.533020e+003
         vertex 2.006666e+003 1.279151e+001 1.552820e+003
         vertex 1.985964e+003 2.558303e+001 1.553727e+003
      endloop
   endfacet
   facet normal 4.938482e-001 7.707306e-001 4.026021e-001
      outer loop
         vertex 1.778141e+003 2.359772e+001 1.312652e+003
         vertex 1.760975e+003 2.563703e+001 1.329805e+003
         vertex 1.781677e+003 1.284552e+001 1.328898e+003
      endloop
   endfacet
   facet normal 9.771153e-001 1.958038e-001 -8.310573e-002
      outer loop
         vertex 1.781677e+003 1.284552e+001 1.328898e+003
         vertex 1.782479e+003 5.412102e-002 1.308192e+003
         vertex 1.778141e+003 2.359772e+001 1.312652e+003
      endloop
   endfacet
   facet normal 8.075212e-002 1.998896e-001 -9.764852e-001
      outer loop
         vertex 1.761695e+003 1.279151e+001 1.309080e+003
         vertex 1.778141e+003 2.359772e+001 1.312652e+003
         vertex 1.782397e+003 0.000000e+000 1.308174e+003
      endloop
   endfacet
   facet normal 8.075212e-002 1.998896e-001 -9.764852e-001
      outer loop
         vertex 1.782397e+003 0.000000e+000 1.308174e+003
         vertex 1.778141e+003 2.359772e+001 1.312652e+003
         vertex 1.782479e+003 5.412102e-002 1.308192e+003
      endloop
   endfacet
   facet normal -4.005693e-001 7.725015e-001 -4.927329e-001
      outer loop
         vertex 1.760893e+003 2.558303e+001 1.329787e+003
         vertex 1.760975e+003 2.563703e+001 1.329805e+003
         vertex 1.761695e+003 1.279151e+001 1.309080e+003
      endloop
   endfacet
   facet normal -4.005693e-001 7.725015e-001 -4.927329e-001
      outer loop
         vertex 1.761695e+003 1.279151e+001 1.309080e+003
         vertex 1.760975e+003 2.563703e+001 1.329805e+003
         vertex 1.778141e+003 2.359772e+001 1.312652e+003
      endloop
   endfacet
   facet normal -4.533732e-001 -7.660445e-001 4.556629e-001
      outer loop
         vertex 1.782395e+003 3.230572e-002 1.308226e+003
         vertex 1.781595e+003 1.279151e+001 1.328880e+003
         vertex 1.761695e+003 1.279151e+001 1.309080e+003
      endloop
   endfacet
   facet normal -4.533732e-001 -7.660445e-001 4.556629e-001
      outer loop
         vertex 1.761695e+003 1.279151e+001 1.309080e+003
         vertex 1.781595e+003 1.279151e+001 1.328880e+003
         vertex 1.760893e+003 2.558303e+001 1.329787e+003
      endloop
   endfacet
   facet normal 4.938482e-001 7.707306e-001 4.026021e-001
      outer loop
         vertex 1.553069e+003 2.359772e+001 1.088712e+003
         vertex 1.535904e+003 2.563703e+001 1.105864e+003
         vertex 1.556606e+003 1.284552e+001 1.104958e+003
      endloop
   endfacet
   facet normal 9.771153e-001 1.958038e-001 -8.310573e-002
      outer loop
         vertex 1.556606e+003 1.284552e+001 1.104958e+003
         vertex 1.557408e+003 5.412102e-002 1.084251e+003
         vertex 1.553069e+003 2.359772e+001 1.088712e+003
      endloop
   endfacet
   facet normal 8.075212e-002 1.998896e-001 -9.764852e-001
      outer loop
         vertex 1.536624e+003 1.279151e+001 1.085140e+003
         vertex 1.553069e+003 2.359772e+001 1.088712e+003
         vertex 1.557326e+003 0.000000e+000 1.084234e+003
      endloop
   endfacet
   facet normal 8.075212e-002 1.998896e-001 -9.764852e-001
      outer loop
         vertex 1.557326e+003 0.000000e+000 1.084234e+003
         vertex 1.553069e+003 2.359772e+001 1.088712e+003
         vertex 1.557408e+003 5.412102e-002 1.084251e+003
      endloop
   endfacet
   facet normal -4.005693e-001 7.725015e-001 -4.927329e-001
      outer loop
         vertex 1.535821e+003 2.558303e+001 1.105846e+003
         vertex 1.535904e+003 2.563703e+001 1.105864e+003
         vertex 1.536624e+003 1.279151e+001 1.085140e+003
      endloop
   endfacet
   facet normal -4.005693e-001 7.725015e-001 -4.927329e-001
      outer loop
         vertex 1.536624e+003 1.279151e+001 1.085140e+003
         vertex 1.535904e+003 2.563703e+001 1.105864e+003
         vertex 1.553069e+003 2.359772e+001 1.088712e+003
      endloop
   endfacet
   facet normal -4.533732e-001 -7.660445e-001 4.556629e-001
      outer loop
         vertex 1.557324e+003 3.230572e-002 1.084286e+003
         vertex 1.556524e+003 1.279151e+001 1.104940e+003
         vertex 1.536624e+003 1.279151e+001 1.085140e+003
      endloop
   endfacet
   facet normal -4.533732e-001 -7.660445e-001 4.556629e-001
      outer loop
         vertex 1.536624e+003 1.279151e+001 1.085140e+003
         vertex 1.556524e+003 1.279151e+001 1.104940e+003
         vertex 1.535821e+003 2.558303e+001 1.105846e+003
      endloop
   endfacet
   facet normal 4.938482e-001 7.707306e-001 4.026021e-001
      outer loop
         vertex 1.102927e+003 2.359772e+001 6.408317e+002
         vertex 1.085761e+003 2.563703e+001 6.579840e+002
         vertex 1.106463e+003 1.284552e+001 6.570776e+002
      endloop
   endfacet
   facet normal 9.771153e-001 1.958038e-001 -8.310573e-002
      outer loop
         vertex 1.106463e+003 1.284552e+001 6.570776e+002
         vertex 1.107266e+003 5.412102e-002 6.363710e+002
         vertex 1.102927e+003 2.359772e+001 6.408317e+002
      endloop
   endfacet
   facet normal 8.075212e-002 1.998896e-001 -9.764852e-001
      outer loop
         vertex 1.086481e+003 1.279151e+001 6.372596e+002
         vertex 1.102927e+003 2.359772e+001 6.408317e+002
         vertex 1.107183e+003 0.000000e+000 6.363533e+002
      endloop
   endfacet
   facet normal 8.075212e-002 1.998896e-001 -9.764852e-001
      outer loop
         vertex 1.107183e+003 0.000000e+000 6.363533e+002
         vertex 1.102927e+003 2.359772e+001 6.408317e+002
         vertex 1.107266e+003 5.412102e-002 6.363710e+002
      endloop
   endfacet
   facet normal -4.005693e-001 7.725015e-001 -4.927329e-001
      outer loop
         vertex 1.085679e+003 2.558303e+001 6.579661e+002
         vertex 1.085761e+003 2.563703e+001 6.579840e+002
         vertex 1.086481e+003 1.279151e+001 6.372596e+002
      endloop
   endfacet
   facet normal -4.005693e-001 7.725015e-001 -4.927329e-001
      outer loop
         vertex 1.086481e+003 1.279151e+001 6.372596e+002
         vertex 1.085761e+003 2.563703e+001 6.579840e+002
         vertex 1.102927e+003 2.359772e+001 6.408317e+002
      endloop
   endfacet
   facet normal -4.533732e-001 -7.660445e-001 4.556629e-001
      outer loop
         vertex 1.107181e+003 3.230572e-002 6.364053e+002
         vertex 1.106381e+003 1.279151e+001 6.570597e+002
         vertex 1.086481e+003 1.279151e+001 6.372596e+002
      endloop
   endfacet
   facet normal -4.533732e-001 -7.660445e-001 4.556629e-001
      outer loop
         vertex 1.086481e+003 1.279151e+001 6.372596e+002
         vertex 1.106381e+003 1.279151e+001 6.570597e+002
         vertex 1.085679e+003 2.558303e+001 6.579661e+002
      endloop
   endfacet
   facet normal 4.938482e-001 7.707306e-001 4.026021e-001
      outer loop
         vertex 8.778559e+002 2.359772e+001 4.168916e+002
         vertex 8.606901e+002 2.563703e+001 4.340438e+002
         vertex 8.813922e+002 1.284552e+001 4.331373e+002
      endloop
   endfacet
   facet normal 9.771153e-001 1.958038e-001 -8.310573e-002
      outer loop
         vertex 8.813922e+002 1.284552e+001 4.331373e+002
         vertex 8.821944e+002 5.412102e-002 4.124309e+002
         vertex 8.778559e+002 2.359772e+001 4.168916e+002
      endloop
   endfacet
   facet normal -4.938482e-001 -7.707306e-001 -4.026021e-001
      outer loop
         vertex 8.820255e+002 1.037121e-002 4.124997e+002
         vertex 8.614100e+002 1.279151e+001 4.133195e+002
         vertex 8.821121e+002 0.000000e+000 4.124130e+002
      endloop
   endfacet
   facet normal 4.005693e-001 -7.725015e-001 4.927329e-001
      outer loop
         vertex 8.820255e+002 1.037121e-002 4.124997e+002
         vertex 8.821121e+002 0.000000e+000 4.124130e+002
         vertex 8.821101e+002 3.230572e-002 4.124652e+002
      endloop
   endfacet
   facet normal 4.005693e-001 -7.725015e-001 4.927329e-001
      outer loop
         vertex 8.821101e+002 3.230572e-002 4.124652e+002
         vertex 8.821121e+002 0.000000e+000 4.124130e+002
         vertex 8.821944e+002 5.412102e-002 4.124309e+002
      endloop
   endfacet
   facet normal 4.005693e-001 -7.725015e-001 4.927329e-001
      outer loop
         vertex 8.821101e+002 3.230572e-002 4.124652e+002
         vertex 8.821944e+002 5.412102e-002 4.124309e+002
         vertex 8.813101e+002 1.279151e+001 4.331194e+002
      endloop
   endfacet
   facet normal 4.005693e-001 -7.725015e-001 4.927329e-001
      outer loop
         vertex 8.813101e+002 1.279151e+001 4.331194e+002
         vertex 8.821944e+002 5.412102e-002 4.124309e+002
         vertex 8.813922e+002 1.284552e+001 4.331373e+002
      endloop
   endfacet
   facet normal 8.075212e-002 1.998896e-001 -9.764852e-001
      outer loop
         vertex 8.614100e+002 1.279151e+001 4.133195e+002
         vertex 8.778559e+002 2.359772e+001 4.168916e+002
         vertex 8.821121e+002 0.000000e+000 4.124130e+002
      endloop
   endfacet
   facet normal 8.075212e-002 1.998896e-001 -9.764852e-001
      outer loop
         vertex 8.821121e+002 0.000000e+000 4.124130e+002
         vertex 8.778559e+002 2.359772e+001 4.168916e+002
         vertex 8.821944e+002 5.412102e-002 4.124309e+002
      endloop
   endfacet
   facet normal -4.005693e-001 7.725015e-001 -4.927329e-001
      outer loop
         vertex 8.606078e+002 2.558303e+001 4.340259e+002
         vertex 8.606901e+002 2.563703e+001 4.340438e+002
         vertex 8.614100e+002 1.279151e+001 4.133195e+002
      endloop
   endfacet
   facet normal -4.005693e-001 7.725015e-001 -4.927329e-001
      outer loop
         vertex 8.614100e+002 1.279151e+001 4.133195e+002
         vertex 8.606901e+002 2.563703e+001 4.340438e+002
         vertex 8.778559e+002 2.359772e+001 4.168916e+002
      endloop
   endfacet
   facet normal -4.533732e-001 -7.660445e-001 4.556629e-001
      outer loop
         vertex 8.821101e+002 3.230572e-002 4.124652e+002
         vertex 8.813101e+002 1.279151e+001 4.331194e+002
         vertex 8.614100e+002 1.279151e+001 4.133195e+002
      endloop
   endfacet
   facet normal -4.533732e-001 -7.660445e-001 4.556629e-001
      outer loop
         vertex 8.614100e+002 1.279151e+001 4.133195e+002
         vertex 8.813101e+002 1.279151e+001 4.331194e+002
         vertex 8.606078e+002 2.558303e+001 4.340259e+002
      endloop
   endfacet
   facet normal 4.938482e-001 7.707306e-001 4.026021e-001
      outer loop
         vertex 6.527847e+002 2.359772e+001 1.929513e+002
         vertex 6.356189e+002 2.563703e+001 2.101036e+002
         vertex 6.563210e+002 1.284552e+001 2.091972e+002
      endloop
   endfacet
   facet normal 9.771153e-001 1.958038e-001 -8.310573e-002
      outer loop
         vertex 6.563210e+002 1.284552e+001 2.091972e+002
         vertex 6.571232e+002 5.412102e-002 1.884908e+002
         vertex 6.527847e+002 2.359772e+001 1.929513e+002
      endloop
   endfacet
   facet normal 8.075212e-002 1.998896e-001 -9.764852e-001
      outer loop
         vertex 6.363388e+002 1.279151e+001 1.893793e+002
         vertex 6.527847e+002 2.359772e+001 1.929513e+002
         vertex 6.570410e+002 0.000000e+000 1.884729e+002
      endloop
   endfacet
   facet normal 8.075212e-002 1.998896e-001 -9.764852e-001
      outer loop
         vertex 6.570410e+002 0.000000e+000 1.884729e+002
         vertex 6.527847e+002 2.359772e+001 1.929513e+002
         vertex 6.571232e+002 5.412102e-002 1.884908e+002
      endloop
   endfacet
   facet normal -4.005693e-001 7.725015e-001 -4.927329e-001
      outer loop
         vertex 6.355367e+002 2.558303e+001 2.100858e+002
         vertex 6.356189e+002 2.563703e+001 2.101036e+002
         vertex 6.363388e+002 1.279151e+001 1.893793e+002
      endloop
   endfacet
   facet normal -4.005693e-001 7.725015e-001 -4.927329e-001
      outer loop
         vertex 6.363388e+002 1.279151e+001 1.893793e+002
         vertex 6.356189e+002 2.563703e+001 2.101036e+002
         vertex 6.527847e+002 2.359772e+001 1.929513e+002
      endloop
   endfacet
   facet normal -4.533732e-001 -7.660445e-001 4.556629e-001
      outer loop
         vertex 6.570389e+002 3.230572e-002 1.885250e+002
         vertex 6.562388e+002 1.279151e+001 2.091793e+002
         vertex 6.363388e+002 1.279151e+001 1.893793e+002
      endloop
   endfacet
   facet normal -4.533732e-001 -7.660445e-001 4.556629e-001
      outer loop
         vertex 6.363388e+002 1.279151e+001 1.893793e+002
         vertex 6.562388e+002 1.279151e+001 2.091793e+002
         vertex 6.355367e+002 2.558303e+001 2.100858e+002
      endloop
   endfacet
   facet normal -4.206460e-001 7.363998e-001 -5.298795e-001
      outer loop
         vertex 2.184038e+003 4.229768e+002 1.979223e+003
         vertex 2.161971e+003 4.139824e+002 1.984241e+003
         vertex 2.175949e+003 4.302577e+002 1.995764e+003
      endloop
   endfacet
   facet normal 3.956290e-001 8.961501e-001 -2.009797e-001
      outer loop
         vertex 2.175949e+003 4.302577e+002 1.995764e+003
         vertex 2.198294e+003 4.210909e+002 1.998876e+003
         vertex 2.184038e+003 4.229768e+002 1.979223e+003
      endloop
   endfacet
   facet normal 7.722907e-001 -2.496765e-001 -5.841479e-001
      outer loop
         vertex 2.184318e+003 4.047244e+002 1.987394e+003
         vertex 2.184038e+003 4.229768e+002 1.979223e+003
         vertex 2.198295e+003 4.209996e+002 1.998917e+003
      endloop
   endfacet
   facet normal 7.722907e-001 -2.496765e-001 -5.841479e-001
      outer loop
         vertex 2.198295e+003 4.209996e+002 1.998917e+003
         vertex 2.184038e+003 4.229768e+002 1.979223e+003
         vertex 2.198294e+003 4.210909e+002 1.998876e+003
      endloop
   endfacet
   facet normal -4.069782e-002 -4.087836e-001 -9.117235e-001
      outer loop
         vertex 2.161973e+003 4.138911e+002 1.984282e+003
         vertex 2.161971e+003 4.139824e+002 1.984241e+003
         vertex 2.184318e+003 4.047244e+002 1.987394e+003
      endloop
   endfacet
   facet normal -4.069782e-002 -4.087836e-001 -9.117235e-001
      outer loop
         vertex 2.184318e+003 4.047244e+002 1.987394e+003
         vertex 2.161971e+003 4.139824e+002 1.984241e+003
         vertex 2.184038e+003 4.229768e+002 1.979223e+003
      endloop
   endfacet
   facet normal -2.797603e-001 -3.830222e-001 8.803568e-001
      outer loop
         vertex 2.198239e+003 4.210227e+002 1.998909e+003
         vertex 2.175950e+003 4.301664e+002 1.995805e+003
         vertex 2.184318e+003 4.047244e+002 1.987394e+003
      endloop
   endfacet
   facet normal -2.797603e-001 -3.830222e-001 8.803568e-001
      outer loop
         vertex 2.184318e+003 4.047244e+002 1.987394e+003
         vertex 2.175950e+003 4.301664e+002 1.995805e+003
         vertex 2.161973e+003 4.138911e+002 1.984282e+003
      endloop
   endfacet
   facet normal -4.206460e-001 7.363998e-001 -5.298795e-001
      outer loop
         vertex 2.089397e+003 7.107296e+002 2.074342e+003
         vertex 2.067330e+003 7.017352e+002 2.079360e+003
         vertex 2.081307e+003 7.180104e+002 2.090883e+003
      endloop
   endfacet
   facet normal 3.956290e-001 8.961501e-001 -2.009797e-001
      outer loop
         vertex 2.081307e+003 7.180104e+002 2.090883e+003
         vertex 2.103653e+003 7.088436e+002 2.093995e+003
         vertex 2.089397e+003 7.107296e+002 2.074342e+003
      endloop
   endfacet
   facet normal 7.722907e-001 -2.496765e-001 -5.841479e-001
      outer loop
         vertex 2.089677e+003 6.924771e+002 2.082514e+003
         vertex 2.089397e+003 7.107296e+002 2.074342e+003
         vertex 2.103654e+003 7.087524e+002 2.094036e+003
      endloop
   endfacet
   facet normal 7.722907e-001 -2.496765e-001 -5.841479e-001
      outer loop
         vertex 2.103654e+003 7.087524e+002 2.094036e+003
         vertex 2.089397e+003 7.107296e+002 2.074342e+003
         vertex 2.103653e+003 7.088436e+002 2.093995e+003
      endloop
   endfacet
   facet normal -4.069782e-002 -4.087836e-001 -9.117235e-001
      outer loop
         vertex 2.067332e+003 7.016438e+002 2.079401e+003
         vertex 2.067330e+003 7.017352e+002 2.079360e+003
         vertex 2.089677e+003 6.924771e+002 2.082514e+003
      endloop
   endfacet
   facet normal -4.069782e-002 -4.087836e-001 -9.117235e-001
      outer loop
         vertex 2.089677e+003 6.924771e+002 2.082514e+003
         vertex 2.067330e+003 7.017352e+002 2.079360e+003
         vertex 2.089397e+003 7.107296e+002 2.074342e+003
      endloop
   endfacet
   facet normal -2.797603e-001 -3.830222e-001 8.803568e-001
      outer loop
         vertex 2.103598e+003 7.087755e+002 2.094029e+003
         vertex 2.081309e+003 7.179192e+002 2.090924e+003
         vertex 2.089677e+003 6.924771e+002 2.082514e+003
      endloop
   endfacet
   facet normal -2.797603e-001 -3.830222e-001 8.803568e-001
      outer loop
         vertex 2.089677e+003 6.924771e+002 2.082514e+003
         vertex 2.081309e+003 7.179192e+002 2.090924e+003
         vertex 2.067332e+003 7.016438e+002 2.079401e+003
      endloop
   endfacet
   facet normal -4.206460e-001 7.363998e-001 -5.298795e-001
      outer loop
         vertex 1.994756e+003 9.984822e+002 2.169461e+003
         vertex 1.972689e+003 9.894879e+002 2.174479e+003
         vertex 1.986666e+003 1.005763e+003 2.186002e+003
      endloop
   endfacet
   facet normal 3.956290e-001 8.961501e-001 -2.009797e-001
      outer loop
         vertex 1.986666e+003 1.005763e+003 2.186002e+003
         vertex 2.009011e+003 9.965963e+002 2.189115e+003
         vertex 1.994756e+003 9.984822e+002 2.169461e+003
      endloop
   endfacet
   facet normal 7.722907e-001 -2.496765e-001 -5.841479e-001
      outer loop
         vertex 1.995035e+003 9.802298e+002 2.177633e+003
         vertex 1.994756e+003 9.984822e+002 2.169461e+003
         vertex 2.009013e+003 9.965051e+002 2.189156e+003
      endloop
   endfacet
   facet normal 7.722907e-001 -2.496765e-001 -5.841479e-001
      outer loop
         vertex 2.009013e+003 9.965051e+002 2.189156e+003
         vertex 1.994756e+003 9.984822e+002 2.169461e+003
         vertex 2.009011e+003 9.965963e+002 2.189115e+003
      endloop
   endfacet
   facet normal -4.069782e-002 -4.087836e-001 -9.117235e-001
      outer loop
         vertex 1.972690e+003 9.893965e+002 2.174520e+003
         vertex 1.972689e+003 9.894879e+002 2.174479e+003
         vertex 1.995035e+003 9.802298e+002 2.177633e+003
      endloop
   endfacet
   facet normal -4.069782e-002 -4.087836e-001 -9.117235e-001
      outer loop
         vertex 1.995035e+003 9.802298e+002 2.177633e+003
         vertex 1.972689e+003 9.894879e+002 2.174479e+003
         vertex 1.994756e+003 9.984822e+002 2.169461e+003
      endloop
   endfacet
   facet normal -2.797603e-001 -3.830222e-001 8.803568e-001
      outer loop
         vertex 2.008956e+003 9.965281e+002 2.189148e+003
         vertex 1.986667e+003 1.005672e+003 2.186043e+003
         vertex 1.995035e+003 9.802298e+002 2.177633e+003
      endloop
   endfacet
   facet normal -2.797603e-001 -3.830222e-001 8.803568e-001
      outer loop
         vertex 1.995035e+003 9.802298e+002 2.177633e+003
         vertex 1.986667e+003 1.005672e+003 2.186043e+003
         vertex 1.972690e+003 9.893965e+002 2.174520e+003
      endloop
   endfacet
   facet normal 1.989840e-001 8.961501e-001 -3.966364e-001
      outer loop
         vertex 2.090479e+002 4.229768e+002 1.415753e+001
         vertex 1.893233e+002 4.210909e+002 1.192093e-003
         vertex 1.925484e+002 4.302577e+002 2.233028e+001
      endloop
   endfacet
   facet normal 5.319918e-001 7.363998e-001 4.179713e-001
      outer loop
         vertex 1.925484e+002 4.302577e+002 2.233028e+001
         vertex 2.041414e+002 4.139824e+002 3.624940e+001
         vertex 2.090479e+002 4.229768e+002 1.415753e+001
      endloop
   endfacet
   facet normal 9.119170e-001 -4.087836e-001 3.610426e-002
      outer loop
         vertex 2.008754e+002 4.047244e+002 1.391900e+001
         vertex 2.090479e+002 4.229768e+002 1.415753e+001
         vertex 2.041005e+002 4.138911e+002 3.624821e+001
      endloop
   endfacet
   facet normal 9.119170e-001 -4.087836e-001 3.610426e-002
      outer loop
         vertex 2.041005e+002 4.138911e+002 3.624821e+001
         vertex 2.090479e+002 4.229768e+002 1.415753e+001
         vertex 2.041414e+002 4.139824e+002 3.624940e+001
      endloop
   endfacet
   facet normal 5.802498e-001 -2.496765e-001 -7.752237e-001
      outer loop
         vertex 1.892824e+002 4.209996e+002 0.000000e+000
         vertex 1.893233e+002 4.210909e+002 1.192093e-003
         vertex 2.008754e+002 4.047244e+002 1.391900e+001
      endloop
   endfacet
   facet normal 5.802498e-001 -2.496765e-001 -7.752237e-001
      outer loop
         vertex 2.008754e+002 4.047244e+002 1.391900e+001
         vertex 1.893233e+002 4.210909e+002 1.192093e-003
         vertex 2.090479e+002 4.229768e+002 1.415753e+001
      endloop
   endfacet
   facet normal -8.789364e-001 -3.830222e-001 2.841918e-001
      outer loop
         vertex 2.040713e+002 4.139322e+002 3.621316e+001
         vertex 1.925075e+002 4.301664e+002 2.232909e+001
         vertex 2.008754e+002 4.047244e+002 1.391900e+001
      endloop
   endfacet
   facet normal -8.789364e-001 -3.830222e-001 2.841918e-001
      outer loop
         vertex 2.008754e+002 4.047244e+002 1.391900e+001
         vertex 1.925075e+002 4.301664e+002 2.232909e+001
         vertex 1.892824e+002 4.209996e+002 0.000000e+000
      endloop
   endfacet
   facet normal 1.989840e-001 8.961501e-001 -3.966364e-001
      outer loop
         vertex 1.144067e+002 7.107296e+002 1.092768e+002
         vertex 9.468210e+001 7.088436e+002 9.512031e+001
         vertex 9.790719e+001 7.180104e+002 1.174495e+002
      endloop
   endfacet
   facet normal 5.319918e-001 7.363998e-001 4.179713e-001
      outer loop
         vertex 9.790719e+001 7.180104e+002 1.174495e+002
         vertex 1.095002e+002 7.017352e+002 1.313685e+002
         vertex 1.144067e+002 7.107296e+002 1.092768e+002
      endloop
   endfacet
   facet normal 9.119170e-001 -4.087836e-001 3.610426e-002
      outer loop
         vertex 1.062342e+002 6.924771e+002 1.090382e+002
         vertex 1.144067e+002 7.107296e+002 1.092768e+002
         vertex 1.094593e+002 7.016438e+002 1.313673e+002
      endloop
   endfacet
   facet normal 9.119170e-001 -4.087836e-001 3.610426e-002
      outer loop
         vertex 1.094593e+002 7.016438e+002 1.313673e+002
         vertex 1.144067e+002 7.107296e+002 1.092768e+002
         vertex 1.095002e+002 7.017352e+002 1.313685e+002
      endloop
   endfacet
   facet normal 5.802498e-001 -2.496765e-001 -7.752237e-001
      outer loop
         vertex 9.464120e+001 7.087524e+002 9.511912e+001
         vertex 9.468210e+001 7.088436e+002 9.512031e+001
         vertex 1.062342e+002 6.924771e+002 1.090382e+002
      endloop
   endfacet
   facet normal 5.802498e-001 -2.496765e-001 -7.752237e-001
      outer loop
         vertex 1.062342e+002 6.924771e+002 1.090382e+002
         vertex 9.468210e+001 7.088436e+002 9.512031e+001
         vertex 1.144067e+002 7.107296e+002 1.092768e+002
      endloop
   endfacet
   facet normal -8.789364e-001 -3.830222e-001 2.841918e-001
      outer loop
         vertex 1.094301e+002 7.016848e+002 1.313323e+002
         vertex 9.786629e+001 7.179192e+002 1.174483e+002
         vertex 1.062342e+002 6.924771e+002 1.090382e+002
      endloop
   endfacet
   facet normal -8.789364e-001 -3.830222e-001 2.841918e-001
      outer loop
         vertex 1.062342e+002 6.924771e+002 1.090382e+002
         vertex 9.786629e+001 7.179192e+002 1.174483e+002
         vertex 9.464120e+001 7.087524e+002 9.511912e+001
      endloop
   endfacet
   facet normal -9.119170e-001 4.087836e-001 -3.610426e-002
      outer loop
         vertex 3.225088e+000 1.005672e+003 2.125674e+002
         vertex 3.265977e+000 1.005763e+003 2.125686e+002
         vertex 0.000000e+000 9.965051e+002 1.902384e+002
      endloop
   endfacet
   facet normal -9.119170e-001 4.087836e-001 -3.610426e-002
      outer loop
         vertex 0.000000e+000 9.965051e+002 1.902384e+002
         vertex 3.265977e+000 1.005763e+003 2.125686e+002
         vertex 4.088879e-002 9.965963e+002 1.902395e+002
      endloop
   endfacet
   facet normal 1.989840e-001 8.961501e-001 -3.966364e-001
      outer loop
         vertex 1.976550e+001 9.984822e+002 2.043959e+002
         vertex 4.088879e-002 9.965963e+002 1.902395e+002
         vertex 3.265977e+000 1.005763e+003 2.125686e+002
      endloop
   endfacet
   facet normal 5.319918e-001 7.363998e-001 4.179713e-001
      outer loop
         vertex 3.265977e+000 1.005763e+003 2.125686e+002
         vertex 1.485896e+001 9.894879e+002 2.264878e+002
         vertex 1.976550e+001 9.984822e+002 2.043959e+002
      endloop
   endfacet
   facet normal 9.119170e-001 -4.087836e-001 3.610426e-002
      outer loop
         vertex 1.159298e+001 9.802298e+002 2.041573e+002
         vertex 1.976550e+001 9.984822e+002 2.043959e+002
         vertex 1.481807e+001 9.893965e+002 2.264866e+002
      endloop
   endfacet
   facet normal 9.119170e-001 -4.087836e-001 3.610426e-002
      outer loop
         vertex 1.481807e+001 9.893965e+002 2.264866e+002
         vertex 1.976550e+001 9.984822e+002 2.043959e+002
         vertex 1.485896e+001 9.894879e+002 2.264878e+002
      endloop
   endfacet
   facet normal 5.802498e-001 -2.496765e-001 -7.752237e-001
      outer loop
         vertex 0.000000e+000 9.965051e+002 1.902384e+002
         vertex 4.088879e-002 9.965963e+002 1.902395e+002
         vertex 1.159298e+001 9.802298e+002 2.041573e+002
      endloop
   endfacet
   facet normal 5.802498e-001 -2.496765e-001 -7.752237e-001
      outer loop
         vertex 1.159298e+001 9.802298e+002 2.041573e+002
         vertex 4.088879e-002 9.965963e+002 1.902395e+002
         vertex 1.976550e+001 9.984822e+002 2.043959e+002
      endloop
   endfacet
   facet normal -8.789364e-001 -3.830222e-001 2.841918e-001
      outer loop
         vertex 1.478887e+001 9.894376e+002 2.264515e+002
         vertex 3.225088e+000 1.005672e+003 2.125674e+002
         vertex 1.159298e+001 9.802298e+002 2.041573e+002
      endloop
   endfacet
   facet normal -8.789364e-001 -3.830222e-001 2.841918e-001
      outer loop
         vertex 1.159298e+001 9.802298e+002 2.041573e+002
         vertex 3.225088e+000 1.005672e+003 2.125674e+002
         vertex 0.000000e+000 9.965051e+002 1.902384e+002
      endloop
   endfacet
endsolid