solid SnookerLineDZone
   facet normal 2.990653e-002 0.000000e+000 9.995527e-001
      outer loop
         vertex 2.773825e-014 1.000000e+001 4.530000e+002
         vertex 2.773825e-014 0.000000e+000 4.530000e+002
         vertex 2.030330e+001 0.000000e+000 4.520882e+002
      endloop
   endfacet
   facet normal 5.981307e-002 0.000000e+000 9.982096e-001
      outer loop
         vertex 2.773825e-014 1.000000e+001 4.530000e+002
         vertex 2.030330e+001 0.000000e+000 4.520882e+002
         vertex 2.030330e+001 1.000000e+001 4.520882e+002
      endloop
   endfacet
   facet normal 1.193854e-001 0.000000e+000 9.928480e-001
      outer loop
         vertex 2.030330e+001 1.000000e+001 4.520882e+002
         vertex 2.030330e+001 0.000000e+000 4.520882e+002
         vertex 4.044314e+001 0.000000e+000 4.493601e+002
      endloop
   endfacet
   facet normal 1.490511e-001 0.000000e+000 9.888295e-001
      outer loop
         vertex 2.030330e+001 1.000000e+001 4.520882e+002
         vertex 4.044314e+001 0.000000e+000 4.493601e+002
         vertex 4.044314e+001 1.000000e+001 4.493601e+002
      endloop
   endfacet
   facet normal 2.079029e-001 0.000000e+000 9.781495e-001
      outer loop
         vertex 4.044314e+001 1.000000e+001 4.493601e+002
         vertex 4.044314e+001 0.000000e+000 4.493601e+002
         vertex 6.025735e+001 0.000000e+000 4.448376e+002
      endloop
   endfacet
   facet normal 2.370891e-001 0.000000e+000 9.714879e-001
      outer loop
         vertex 4.044314e+001 1.000000e+001 4.493601e+002
         vertex 6.025735e+001 0.000000e+000 4.448376e+002
         vertex 6.025735e+001 1.000000e+001 4.448376e+002
      endloop
   endfacet
   facet normal 2.947466e-001 0.000000e+000 9.555755e-001
      outer loop
         vertex 6.025735e+001 1.000000e+001 4.448376e+002
         vertex 6.025735e+001 0.000000e+000 4.448376e+002
         vertex 7.958640e+001 0.000000e+000 4.385572e+002
      endloop
   endfacet
   facet normal 3.232181e-001 0.000000e+000 9.463245e-001
      outer loop
         vertex 6.025735e+001 1.000000e+001 4.448376e+002
         vertex 7.958640e+001 0.000000e+000 4.385572e+002
         vertex 7.958640e+001 1.000000e+001 4.385572e+002
      endloop
   endfacet
   facet normal 3.792172e-001 0.000000e+000 9.253077e-001
      outer loop
         vertex 7.958640e+001 1.000000e+001 4.385572e+002
         vertex 7.958640e+001 0.000000e+000 4.385572e+002
         vertex 9.827467e+001 0.000000e+000 4.305695e+002
      endloop
   endfacet
   facet normal 4.067448e-001 0.000000e+000 9.135419e-001
      outer loop
         vertex 7.958640e+001 1.000000e+001 4.385572e+002
         vertex 9.827467e+001 0.000000e+000 4.305695e+002
         vertex 9.827467e+001 1.000000e+001 4.305695e+002
      endloop
   endfacet
   facet normal 4.606345e-001 0.000000e+000 8.875899e-001
      outer loop
         vertex 9.827467e+001 1.000000e+001 4.305695e+002
         vertex 9.827467e+001 0.000000e+000 4.305695e+002
         vertex 1.161717e+002 0.000000e+000 4.209387e+002
      endloop
   endfacet
   facet normal 4.869966e-001 0.000000e+000 8.734038e-001
      outer loop
         vertex 9.827467e+001 1.000000e+001 4.305695e+002
         vertex 1.161717e+002 0.000000e+000 4.209387e+002
         vertex 1.161717e+002 1.000000e+001 4.209387e+002
      endloop
   endfacet
   facet normal 5.383431e-001 0.000000e+000 8.427258e-001
      outer loop
         vertex 1.161717e+002 1.000000e+001 4.209387e+002
         vertex 1.161717e+002 0.000000e+000 4.209387e+002
         vertex 1.331334e+002 0.000000e+000 4.097424e+002
      endloop
   endfacet
   facet normal 5.633274e-001 0.000000e+000 8.262338e-001
      outer loop
         vertex 1.161717e+002 1.000000e+001 4.209387e+002
         vertex 1.331334e+002 0.000000e+000 4.097424e+002
         vertex 1.331334e+002 1.000000e+001 4.097424e+002
      endloop
   endfacet
   facet normal 6.117172e-001 0.000000e+000 7.910765e-001
      outer loop
         vertex 1.331334e+002 1.000000e+001 4.097424e+002
         vertex 1.331334e+002 0.000000e+000 4.097424e+002
         vertex 1.490231e+002 0.000000e+000 3.970707e+002
      endloop
   endfacet
   facet normal 6.351227e-001 0.000000e+000 7.724113e-001
      outer loop
         vertex 1.331334e+002 1.000000e+001 4.097424e+002
         vertex 1.490231e+002 0.000000e+000 3.970707e+002
         vertex 1.490231e+002 1.000000e+001 3.970707e+002
      endloop
   endfacet
   facet normal 6.801662e-001 0.000000e+000 7.330579e-001
      outer loop
         vertex 1.490231e+002 1.000000e+001 3.970707e+002
         vertex 1.490231e+002 0.000000e+000 3.970707e+002
         vertex 1.637130e+002 0.000000e+000 3.830257e+002
      endloop
   endfacet
   facet normal 7.018043e-001 0.000000e+000 7.123698e-001
      outer loop
         vertex 1.490231e+002 1.000000e+001 3.970707e+002
         vertex 1.637130e+002 0.000000e+000 3.830257e+002
         vertex 1.637130e+002 1.000000e+001 3.830257e+002
      endloop
   endfacet
   facet normal 7.431389e-001 0.000000e+000 6.691372e-001
      outer loop
         vertex 1.637130e+002 1.000000e+001 3.830257e+002
         vertex 1.637130e+002 0.000000e+000 3.830257e+002
         vertex 1.770848e+002 0.000000e+000 3.677204e+002
      endloop
   endfacet
   facet normal 7.628354e-001 0.000000e+000 6.465927e-001
      outer loop
         vertex 1.637130e+002 1.000000e+001 3.830257e+002
         vertex 1.770848e+002 0.000000e+000 3.677204e+002
         vertex 1.770848e+002 1.000000e+001 3.677204e+002
      endloop
   endfacet
   facet normal 8.001282e-001 0.000000e+000 5.998291e-001
      outer loop
         vertex 1.770848e+002 1.000000e+001 3.677204e+002
         vertex 1.770848e+002 0.000000e+000 3.677204e+002
         vertex 1.890308e+002 0.000000e+000 3.512782e+002
      endloop
   endfacet
   facet normal 8.177245e-001 0.000000e+000 5.756097e-001
      outer loop
         vertex 1.770848e+002 1.000000e+001 3.677204e+002
         vertex 1.890308e+002 0.000000e+000 3.512782e+002
         vertex 1.890308e+002 1.000000e+001 3.512782e+002
      endloop
   endfacet
   facet normal 8.506754e-001 0.000000e+000 5.256914e-001
      outer loop
         vertex 1.890308e+002 1.000000e+001 3.512782e+002
         vertex 1.890308e+002 0.000000e+000 3.512782e+002
         vertex 1.994549e+002 0.000000e+000 3.338312e+002
      endloop
   endfacet
   facet normal 8.660299e-001 0.000000e+000 4.999923e-001
      outer loop
         vertex 1.890308e+002 1.000000e+001 3.512782e+002
         vertex 1.994549e+002 0.000000e+000 3.338312e+002
         vertex 1.994549e+002 1.000000e+001 3.338312e+002
      endloop
   endfacet
   facet normal 8.943734e-001 0.000000e+000 4.473211e-001
      outer loop
         vertex 1.994549e+002 1.000000e+001 3.338312e+002
         vertex 1.994549e+002 0.000000e+000 3.338312e+002
         vertex 2.082730e+002 0.000000e+000 3.155202e+002
      endloop
   endfacet
   facet normal 9.073625e-001 0.000000e+000 4.203491e-001
      outer loop
         vertex 1.994549e+002 1.000000e+001 3.338312e+002
         vertex 2.082730e+002 0.000000e+000 3.155202e+002
         vertex 2.082730e+002 1.000000e+001 3.155202e+002
      endloop
   endfacet
   facet normal 9.308705e-001 0.000000e+000 3.653493e-001
      outer loop
         vertex 2.082730e+002 1.000000e+001 3.155202e+002
         vertex 2.082730e+002 0.000000e+000 3.155202e+002
         vertex 2.154143e+002 0.000000e+000 2.964923e+002
      endloop
   endfacet
   facet normal 9.413895e-001 0.000000e+000 3.373216e-001
      outer loop
         vertex 2.082730e+002 1.000000e+001 3.155202e+002
         vertex 2.154143e+002 0.000000e+000 2.964923e+002
         vertex 2.154143e+002 1.000000e+001 2.964923e+002
      endloop
   endfacet
   facet normal 9.598727e-001 0.000000e+000 2.804360e-001
      outer loop
         vertex 2.154143e+002 1.000000e+001 2.964923e+002
         vertex 2.154143e+002 0.000000e+000 2.964923e+002
         vertex 2.208212e+002 0.000000e+000 2.769010e+002
      endloop
   endfacet
   facet normal 9.678370e-001 0.000000e+000 2.515781e-001
      outer loop
         vertex 2.154143e+002 1.000000e+001 2.964923e+002
         vertex 2.208212e+002 0.000000e+000 2.769010e+002
         vertex 2.208212e+002 1.000000e+001 2.769010e+002
      endloop
   endfacet
   facet normal 9.811466e-001 0.000000e+000 1.932647e-001
      outer loop
         vertex 2.208212e+002 1.000000e+001 2.769010e+002
         vertex 2.208212e+002 0.000000e+000 2.769010e+002
         vertex 2.244501e+002 0.000000e+000 2.569038e+002
      endloop
   endfacet
   facet normal 9.864920e-001 0.000000e+000 1.638091e-001
      outer loop
         vertex 2.208212e+002 1.000000e+001 2.769010e+002
         vertex 2.244501e+002 0.000000e+000 2.569038e+002
         vertex 2.244501e+002 1.000000e+001 2.569038e+002
      endloop
   endfacet
   facet normal 9.945210e-001 0.000000e+000 1.045373e-001
      outer loop
         vertex 2.244501e+002 1.000000e+001 2.569038e+002
         vertex 2.244501e+002 0.000000e+000 2.569038e+002
         vertex 2.262719e+002 0.000000e+000 2.366619e+002
      endloop
   endfacet
   facet normal 9.972045e-001 0.000000e+000 7.472119e-002
      outer loop
         vertex 2.244501e+002 1.000000e+001 2.569038e+002
         vertex 2.262719e+002 0.000000e+000 2.366619e+002
         vertex 2.262719e+002 1.000000e+001 2.366619e+002
      endloop
   endfacet
   facet normal 9.998879e-001 0.000000e+000 1.496834e-002
      outer loop
         vertex 2.262719e+002 1.000000e+001 2.366619e+002
         vertex 2.262719e+002 0.000000e+000 2.366619e+002
         vertex 2.262719e+002 0.000000e+000 2.163381e+002
      endloop
   endfacet
   facet normal 9.998879e-001 0.000000e+000 -1.496834e-002
      outer loop
         vertex 2.262719e+002 1.000000e+001 2.366619e+002
         vertex 2.262719e+002 0.000000e+000 2.163381e+002
         vertex 2.262719e+002 1.000000e+001 2.163381e+002
      endloop
   endfacet
   facet normal 9.972045e-001 0.000000e+000 -7.472119e-002
      outer loop
         vertex 2.262719e+002 1.000000e+001 2.163381e+002
         vertex 2.262719e+002 0.000000e+000 2.163381e+002
         vertex 2.244501e+002 0.000000e+000 1.960962e+002
      endloop
   endfacet
   facet normal 9.945210e-001 0.000000e+000 -1.045373e-001
      outer loop
         vertex 2.262719e+002 1.000000e+001 2.163381e+002
         vertex 2.244501e+002 0.000000e+000 1.960962e+002
         vertex 2.244501e+002 1.000000e+001 1.960962e+002
      endloop
   endfacet
   facet normal 9.864920e-001 0.000000e+000 -1.638091e-001
      outer loop
         vertex 2.244501e+002 1.000000e+001 1.960962e+002
         vertex 2.244501e+002 0.000000e+000 1.960962e+002
         vertex 2.208212e+002 0.000000e+000 1.760990e+002
      endloop
   endfacet
   facet normal 9.811466e-001 0.000000e+000 -1.932647e-001
      outer loop
         vertex 2.244501e+002 1.000000e+001 1.960962e+002
         vertex 2.208212e+002 0.000000e+000 1.760990e+002
         vertex 2.208212e+002 1.000000e+001 1.760990e+002
      endloop
   endfacet
   facet normal 9.678370e-001 0.000000e+000 -2.515781e-001
      outer loop
         vertex 2.208212e+002 1.000000e+001 1.760990e+002
         vertex 2.208212e+002 0.000000e+000 1.760990e+002
         vertex 2.154143e+002 0.000000e+000 1.565077e+002
      endloop
   endfacet
   facet normal 9.598727e-001 0.000000e+000 -2.804360e-001
      outer loop
         vertex 2.208212e+002 1.000000e+001 1.760990e+002
         vertex 2.154143e+002 0.000000e+000 1.565077e+002
         vertex 2.154143e+002 1.000000e+001 1.565077e+002
      endloop
   endfacet
   facet normal 9.413895e-001 0.000000e+000 -3.373216e-001
      outer loop
         vertex 2.154143e+002 1.000000e+001 1.565077e+002
         vertex 2.154143e+002 0.000000e+000 1.565077e+002
         vertex 2.082730e+002 0.000000e+000 1.374798e+002
      endloop
   endfacet
   facet normal 9.308705e-001 0.000000e+000 -3.653493e-001
      outer loop
         vertex 2.154143e+002 1.000000e+001 1.565077e+002
         vertex 2.082730e+002 0.000000e+000 1.374798e+002
         vertex 2.082730e+002 1.000000e+001 1.374798e+002
      endloop
   endfacet
   facet normal 9.073625e-001 0.000000e+000 -4.203491e-001
      outer loop
         vertex 2.082730e+002 1.000000e+001 1.374798e+002
         vertex 2.082730e+002 0.000000e+000 1.374798e+002
         vertex 1.994549e+002 0.000000e+000 1.191688e+002
      endloop
   endfacet
   facet normal 8.943734e-001 0.000000e+000 -4.473212e-001
      outer loop
         vertex 2.082730e+002 1.000000e+001 1.374798e+002
         vertex 1.994549e+002 0.000000e+000 1.191688e+002
         vertex 1.994549e+002 1.000000e+001 1.191688e+002
      endloop
   endfacet
   facet normal 8.660299e-001 0.000000e+000 -4.999923e-001
      outer loop
         vertex 1.994549e+002 1.000000e+001 1.191688e+002
         vertex 1.994549e+002 0.000000e+000 1.191688e+002
         vertex 1.890308e+002 0.000000e+000 1.017218e+002
      endloop
   endfacet
   facet normal 8.506753e-001 0.000000e+000 -5.256914e-001
      outer loop
         vertex 1.994549e+002 1.000000e+001 1.191688e+002
         vertex 1.890308e+002 0.000000e+000 1.017218e+002
         vertex 1.890308e+002 1.000000e+001 1.017218e+002
      endloop
   endfacet
   facet normal 8.177245e-001 0.000000e+000 -5.756098e-001
      outer loop
         vertex 1.890308e+002 1.000000e+001 1.017218e+002
         vertex 1.890308e+002 0.000000e+000 1.017218e+002
         vertex 1.770848e+002 0.000000e+000 8.527957e+001
      endloop
   endfacet
   facet normal 8.001282e-001 0.000000e+000 -5.998291e-001
      outer loop
         vertex 1.890308e+002 1.000000e+001 1.017218e+002
         vertex 1.770848e+002 0.000000e+000 8.527957e+001
         vertex 1.770848e+002 1.000000e+001 8.527957e+001
      endloop
   endfacet
   facet normal 7.628354e-001 0.000000e+000 -6.465927e-001
      outer loop
         vertex 1.770848e+002 1.000000e+001 8.527957e+001
         vertex 1.770848e+002 0.000000e+000 8.527957e+001
         vertex 1.637130e+002 0.000000e+000 6.997432e+001
      endloop
   endfacet
   facet normal 7.431389e-001 0.000000e+000 -6.691372e-001
      outer loop
         vertex 1.770848e+002 1.000000e+001 8.527957e+001
         vertex 1.637130e+002 0.000000e+000 6.997432e+001
         vertex 1.637130e+002 1.000000e+001 6.997432e+001
      endloop
   endfacet
   facet normal 7.018043e-001 0.000000e+000 -7.123698e-001
      outer loop
         vertex 1.637130e+002 1.000000e+001 6.997432e+001
         vertex 1.637130e+002 0.000000e+000 6.997432e+001
         vertex 1.490231e+002 0.000000e+000 5.592932e+001
      endloop
   endfacet
   facet normal 6.801662e-001 0.000000e+000 -7.330579e-001
      outer loop
         vertex 1.637130e+002 1.000000e+001 6.997432e+001
         vertex 1.490231e+002 0.000000e+000 5.592932e+001
         vertex 1.490231e+002 1.000000e+001 5.592932e+001
      endloop
   endfacet
   facet normal 6.351227e-001 0.000000e+000 -7.724113e-001
      outer loop
         vertex 1.490231e+002 1.000000e+001 5.592932e+001
         vertex 1.490231e+002 0.000000e+000 5.592932e+001
         vertex 1.331334e+002 0.000000e+000 4.325765e+001
      endloop
   endfacet
   facet normal 6.117172e-001 0.000000e+000 -7.910765e-001
      outer loop
         vertex 1.490231e+002 1.000000e+001 5.592932e+001
         vertex 1.331334e+002 0.000000e+000 4.325765e+001
         vertex 1.331334e+002 1.000000e+001 4.325765e+001
      endloop
   endfacet
   facet normal 5.633274e-001 0.000000e+000 -8.262338e-001
      outer loop
         vertex 1.331334e+002 1.000000e+001 4.325765e+001
         vertex 1.331334e+002 0.000000e+000 4.325765e+001
         vertex 1.161717e+002 0.000000e+000 3.206135e+001
      endloop
   endfacet
   facet normal 5.383431e-001 0.000000e+000 -8.427258e-001
      outer loop
         vertex 1.331334e+002 1.000000e+001 4.325765e+001
         vertex 1.161717e+002 0.000000e+000 3.206135e+001
         vertex 1.161717e+002 1.000000e+001 3.206135e+001
      endloop
   endfacet
   facet normal 4.869966e-001 0.000000e+000 -8.734038e-001
      outer loop
         vertex 1.161717e+002 1.000000e+001 3.206135e+001
         vertex 1.161717e+002 0.000000e+000 3.206135e+001
         vertex 9.827467e+001 0.000000e+000 2.243055e+001
      endloop
   endfacet
   facet normal 4.606345e-001 0.000000e+000 -8.875899e-001
      outer loop
         vertex 1.161717e+002 1.000000e+001 3.206135e+001
         vertex 9.827467e+001 0.000000e+000 2.243055e+001
         vertex 9.827467e+001 1.000000e+001 2.243055e+001
      endloop
   endfacet
   facet normal 4.067448e-001 0.000000e+000 -9.135419e-001
      outer loop
         vertex 9.827467e+001 1.000000e+001 2.243055e+001
         vertex 9.827467e+001 0.000000e+000 2.243055e+001
         vertex 7.958640e+001 0.000000e+000 1.444280e+001
      endloop
   endfacet
   facet normal 3.792172e-001 0.000000e+000 -9.253077e-001
      outer loop
         vertex 9.827467e+001 1.000000e+001 2.243055e+001
         vertex 7.958640e+001 0.000000e+000 1.444280e+001
         vertex 7.958640e+001 1.000000e+001 1.444280e+001
      endloop
   endfacet
   facet normal 3.232181e-001 0.000000e+000 -9.463245e-001
      outer loop
         vertex 7.958640e+001 1.000000e+001 1.444280e+001
         vertex 7.958640e+001 0.000000e+000 1.444280e+001
         vertex 6.025735e+001 0.000000e+000 8.162424e+000
      endloop
   endfacet
   facet normal 2.947466e-001 0.000000e+000 -9.555755e-001
      outer loop
         vertex 7.958640e+001 1.000000e+001 1.444280e+001
         vertex 6.025735e+001 0.000000e+000 8.162424e+000
         vertex 6.025735e+001 1.000000e+001 8.162424e+000
      endloop
   endfacet
   facet normal 2.370891e-001 0.000000e+000 -9.714879e-001
      outer loop
         vertex 6.025735e+001 1.000000e+001 8.162424e+000
         vertex 6.025735e+001 0.000000e+000 8.162424e+000
         vertex 4.044314e+001 0.000000e+000 3.639951e+000
      endloop
   endfacet
   facet normal 2.079029e-001 0.000000e+000 -9.781495e-001
      outer loop
         vertex 6.025735e+001 1.000000e+001 8.162424e+000
         vertex 4.044314e+001 0.000000e+000 3.639951e+000
         vertex 4.044314e+001 1.000000e+001 3.639951e+000
      endloop
   endfacet
   facet normal 1.490511e-001 0.000000e+000 -9.888295e-001
      outer loop
         vertex 4.044314e+001 1.000000e+001 3.639951e+000
         vertex 4.044314e+001 0.000000e+000 3.639951e+000
         vertex 2.030330e+001 0.000000e+000 9.118319e-001
      endloop
   endfacet
   facet normal 1.193854e-001 0.000000e+000 -9.928480e-001
      outer loop
         vertex 4.044314e+001 1.000000e+001 3.639951e+000
         vertex 2.030330e+001 0.000000e+000 9.118319e-001
         vertex 2.030330e+001 1.000000e+001 9.118319e-001
      endloop
   endfacet
   facet normal 5.981307e-002 0.000000e+000 -9.982096e-001
      outer loop
         vertex 2.030330e+001 1.000000e+001 9.118319e-001
         vertex 2.030330e+001 0.000000e+000 9.118319e-001
         vertex 0.000000e+000 0.000000e+000 0.000000e+000
      endloop
   endfacet
   facet normal 2.990653e-002 0.000000e+000 -9.995527e-001
      outer loop
         vertex 2.030330e+001 1.000000e+001 9.118319e-001
         vertex 0.000000e+000 0.000000e+000 0.000000e+000
         vertex 0.000000e+000 1.000000e+001 0.000000e+000
      endloop
   endfacet
   facet normal -1.000000e+000 0.000000e+000 0.000000e+000
      outer loop
         vertex 0.000000e+000 1.000000e+001 1.000001e+001
         vertex 0.000000e+000 1.000000e+001 0.000000e+000
         vertex 0.000000e+000 0.000000e+000 1.000001e+001
      endloop
   endfacet
   facet normal -1.000000e+000 0.000000e+000 0.000000e+000
      outer loop
         vertex 0.000000e+000 0.000000e+000 1.000001e+001
         vertex 0.000000e+000 1.000000e+001 0.000000e+000
         vertex 0.000000e+000 0.000000e+000 0.000000e+000
      endloop
   endfacet
   facet normal -3.078532e-002 0.000000e+000 9.995260e-001
      outer loop
         vertex 2.651360e-014 1.000000e+001 1.000001e+001
         vertex 2.651360e-014 0.000000e+000 1.000001e+001
         vertex 1.997610e+001 0.000000e+000 1.092355e+001
      endloop
   endfacet
   facet normal -6.157063e-002 0.000000e+000 9.981027e-001
      outer loop
         vertex 2.651360e-014 1.000000e+001 1.000001e+001
         vertex 1.997610e+001 0.000000e+000 1.092355e+001
         vertex 1.997610e+001 1.000000e+001 1.092355e+001
      endloop
   endfacet
   facet normal -1.228786e-001 0.000000e+000 9.924217e-001
      outer loop
         vertex 1.997610e+001 1.000000e+001 1.092355e+001
         vertex 1.997610e+001 0.000000e+000 1.092355e+001
         vertex 3.978177e+001 0.000000e+000 1.368633e+001
      endloop
   endfacet
   facet normal -1.534013e-001 0.000000e+000 9.881640e-001
      outer loop
         vertex 1.997610e+001 1.000000e+001 1.092355e+001
         vertex 3.978177e+001 0.000000e+000 1.368633e+001
         vertex 3.978177e+001 1.000000e+001 1.368633e+001
      endloop
   endfacet
   facet normal -2.139236e-001 0.000000e+000 9.768505e-001
      outer loop
         vertex 3.978177e+001 1.000000e+001 1.368633e+001
         vertex 3.978177e+001 0.000000e+000 1.368633e+001
         vertex 5.924804e+001 0.000000e+000 1.826476e+001
      endloop
   endfacet
   facet normal -2.439232e-001 0.000000e+000 9.697946e-001
      outer loop
         vertex 3.978177e+001 1.000000e+001 1.368633e+001
         vertex 5.924804e+001 0.000000e+000 1.826476e+001
         vertex 5.924804e+001 1.000000e+001 1.826476e+001
      endloop
   endfacet
   facet normal -3.031434e-001 0.000000e+000 9.529450e-001
      outer loop
         vertex 5.924804e+001 1.000000e+001 1.826476e+001
         vertex 5.924804e+001 0.000000e+000 1.826476e+001
         vertex 7.820882e+001 0.000000e+000 2.461977e+001
      endloop
   endfacet
   facet normal -3.323640e-001 0.000000e+000 9.431512e-001
      outer loop
         vertex 5.924804e+001 1.000000e+001 1.826476e+001
         vertex 7.820882e+001 0.000000e+000 2.461977e+001
         vertex 7.820882e+001 1.000000e+001 2.461977e+001
      endloop
   endfacet
   facet normal -3.897769e-001 0.000000e+000 9.209093e-001
      outer loop
         vertex 7.820882e+001 1.000000e+001 2.461977e+001
         vertex 7.820882e+001 0.000000e+000 2.461977e+001
         vertex 9.650236e+001 0.000000e+000 3.269715e+001
      endloop
   endfacet
   facet normal -4.179692e-001 0.000000e+000 9.084612e-001
      outer loop
         vertex 7.820882e+001 1.000000e+001 2.461977e+001
         vertex 9.650236e+001 0.000000e+000 3.269715e+001
         vertex 9.650236e+001 1.000000e+001 3.269715e+001
      endloop
   endfacet
   facet normal -4.730850e-001 0.000000e+000 8.810168e-001
      outer loop
         vertex 9.650236e+001 1.000000e+001 3.269715e+001
         vertex 9.650236e+001 0.000000e+000 3.269715e+001
         vertex 1.139726e+002 0.000000e+000 4.242800e+001
      endloop
   endfacet
   facet normal -5.000085e-001 0.000000e+000 8.660206e-001
      outer loop
         vertex 9.650236e+001 1.000000e+001 3.269715e+001
         vertex 1.139726e+002 0.000000e+000 4.242800e+001
         vertex 1.139726e+002 1.000000e+001 4.242800e+001
      endloop
   endfacet
   facet normal -5.523569e-001 0.000000e+000 8.336078e-001
      outer loop
         vertex 1.139726e+002 1.000000e+001 4.242800e+001
         vertex 1.139726e+002 0.000000e+000 4.242800e+001
         vertex 1.304704e+002 0.000000e+000 5.372928e+001
      endloop
   endfacet
   facet normal -5.777818e-001 0.000000e+000 8.161913e-001
      outer loop
         vertex 1.139726e+002 1.000000e+001 4.242800e+001
         vertex 1.304704e+002 0.000000e+000 5.372928e+001
         vertex 1.304704e+002 1.000000e+001 5.372928e+001
      endloop
   endfacet
   facet normal -6.269162e-001 0.000000e+000 7.790867e-001
      outer loop
         vertex 1.304704e+002 1.000000e+001 5.372928e+001
         vertex 1.304704e+002 0.000000e+000 5.372928e+001
         vertex 1.458551e+002 0.000000e+000 6.650457e+001
      endloop
   endfacet
   facet normal -6.506257e-001 0.000000e+000 7.593986e-001
      outer loop
         vertex 1.304704e+002 1.000000e+001 5.372928e+001
         vertex 1.458551e+002 0.000000e+000 6.650457e+001
         vertex 1.458551e+002 1.000000e+001 6.650457e+001
      endloop
   endfacet
   facet normal -6.961269e-001 0.000000e+000 7.179187e-001
      outer loop
         vertex 1.458551e+002 1.000000e+001 6.650457e+001
         vertex 1.458551e+002 0.000000e+000 6.650457e+001
         vertex 1.599954e+002 0.000000e+000 8.064489e+001
      endloop
   endfacet
   facet normal -7.179187e-001 0.000000e+000 6.961269e-001
      outer loop
         vertex 1.458551e+002 1.000000e+001 6.650457e+001
         vertex 1.599954e+002 0.000000e+000 8.064489e+001
         vertex 1.599954e+002 1.000000e+001 8.064489e+001
      endloop
   endfacet
   facet normal -7.593986e-001 0.000000e+000 6.506257e-001
      outer loop
         vertex 1.599954e+002 1.000000e+001 8.064489e+001
         vertex 1.599954e+002 0.000000e+000 8.064489e+001
         vertex 1.727707e+002 0.000000e+000 9.602961e+001
      endloop
   endfacet
   facet normal -7.790867e-001 0.000000e+000 6.269162e-001
      outer loop
         vertex 1.599954e+002 1.000000e+001 8.064489e+001
         vertex 1.727707e+002 0.000000e+000 9.602961e+001
         vertex 1.727707e+002 1.000000e+001 9.602961e+001
      endloop
   endfacet
   facet normal -8.161913e-001 0.000000e+000 5.777818e-001
      outer loop
         vertex 1.727707e+002 1.000000e+001 9.602961e+001
         vertex 1.727707e+002 0.000000e+000 9.602961e+001
         vertex 1.840720e+002 0.000000e+000 1.125274e+002
      endloop
   endfacet
   facet normal -8.336078e-001 0.000000e+000 5.523569e-001
      outer loop
         vertex 1.727707e+002 1.000000e+001 9.602961e+001
         vertex 1.840720e+002 0.000000e+000 1.125274e+002
         vertex 1.840720e+002 1.000000e+001 1.125274e+002
      endloop
   endfacet
   facet normal -8.660206e-001 0.000000e+000 5.000084e-001
      outer loop
         vertex 1.840720e+002 1.000000e+001 1.125274e+002
         vertex 1.840720e+002 0.000000e+000 1.125274e+002
         vertex 1.938028e+002 0.000000e+000 1.299976e+002
      endloop
   endfacet
   facet normal -8.810169e-001 0.000000e+000 4.730849e-001
      outer loop
         vertex 1.840720e+002 1.000000e+001 1.125274e+002
         vertex 1.938028e+002 0.000000e+000 1.299976e+002
         vertex 1.938028e+002 1.000000e+001 1.299976e+002
      endloop
   endfacet
   facet normal -9.084612e-001 0.000000e+000 4.179692e-001
      outer loop
         vertex 1.938028e+002 1.000000e+001 1.299976e+002
         vertex 1.938028e+002 0.000000e+000 1.299976e+002
         vertex 2.018802e+002 0.000000e+000 1.482912e+002
      endloop
   endfacet
   facet normal -9.209093e-001 0.000000e+000 3.897769e-001
      outer loop
         vertex 1.938028e+002 1.000000e+001 1.299976e+002
         vertex 2.018802e+002 0.000000e+000 1.482912e+002
         vertex 2.018802e+002 1.000000e+001 1.482912e+002
      endloop
   endfacet
   facet normal -9.431512e-001 0.000000e+000 3.323640e-001
      outer loop
         vertex 2.018802e+002 1.000000e+001 1.482912e+002
         vertex 2.018802e+002 0.000000e+000 1.482912e+002
         vertex 2.082352e+002 0.000000e+000 1.672520e+002
      endloop
   endfacet
   facet normal -9.529450e-001 0.000000e+000 3.031434e-001
      outer loop
         vertex 2.018802e+002 1.000000e+001 1.482912e+002
         vertex 2.082352e+002 0.000000e+000 1.672520e+002
         vertex 2.082352e+002 1.000000e+001 1.672520e+002
      endloop
   endfacet
   facet normal -9.697946e-001 0.000000e+000 2.439232e-001
      outer loop
         vertex 2.082352e+002 1.000000e+001 1.672520e+002
         vertex 2.082352e+002 0.000000e+000 1.672520e+002
         vertex 2.128137e+002 0.000000e+000 1.867182e+002
      endloop
   endfacet
   facet normal -9.768505e-001 0.000000e+000 2.139236e-001
      outer loop
         vertex 2.082352e+002 1.000000e+001 1.672520e+002
         vertex 2.128137e+002 0.000000e+000 1.867182e+002
         vertex 2.128137e+002 1.000000e+001 1.867182e+002
      endloop
   endfacet
   facet normal -9.881640e-001 0.000000e+000 1.534013e-001
      outer loop
         vertex 2.128137e+002 1.000000e+001 1.867182e+002
         vertex 2.128137e+002 0.000000e+000 1.867182e+002
         vertex 2.155765e+002 0.000000e+000 2.065239e+002
      endloop
   endfacet
   facet normal -9.924217e-001 0.000000e+000 1.228786e-001
      outer loop
         vertex 2.128137e+002 1.000000e+001 1.867182e+002
         vertex 2.155765e+002 0.000000e+000 2.065239e+002
         vertex 2.155765e+002 1.000000e+001 2.065239e+002
      endloop
   endfacet
   facet normal -9.981027e-001 0.000000e+000 6.157063e-002
      outer loop
         vertex 2.155765e+002 1.000000e+001 2.065239e+002
         vertex 2.155765e+002 0.000000e+000 2.065239e+002
         vertex 2.165000e+002 0.000000e+000 2.265000e+002
      endloop
   endfacet
   facet normal -9.995260e-001 0.000000e+000 3.078532e-002
      outer loop
         vertex 2.155765e+002 1.000000e+001 2.065239e+002
         vertex 2.165000e+002 0.000000e+000 2.265000e+002
         vertex 2.165000e+002 1.000000e+001 2.265000e+002
      endloop
   endfacet
   facet normal -9.995260e-001 0.000000e+000 -3.078532e-002
      outer loop
         vertex 2.165000e+002 1.000000e+001 2.265000e+002
         vertex 2.165000e+002 0.000000e+000 2.265000e+002
         vertex 2.155765e+002 0.000000e+000 2.464761e+002
      endloop
   endfacet
   facet normal -9.981027e-001 0.000000e+000 -6.157063e-002
      outer loop
         vertex 2.165000e+002 1.000000e+001 2.265000e+002
         vertex 2.155765e+002 0.000000e+000 2.464761e+002
         vertex 2.155765e+002 1.000000e+001 2.464761e+002
      endloop
   endfacet
   facet normal -9.924217e-001 0.000000e+000 -1.228786e-001
      outer loop
         vertex 2.155765e+002 1.000000e+001 2.464761e+002
         vertex 2.155765e+002 0.000000e+000 2.464761e+002
         vertex 2.128137e+002 0.000000e+000 2.662818e+002
      endloop
   endfacet
   facet normal -9.881640e-001 0.000000e+000 -1.534013e-001
      outer loop
         vertex 2.155765e+002 1.000000e+001 2.464761e+002
         vertex 2.128137e+002 0.000000e+000 2.662818e+002
         vertex 2.128137e+002 1.000000e+001 2.662818e+002
      endloop
   endfacet
   facet normal -9.768505e-001 0.000000e+000 -2.139236e-001
      outer loop
         vertex 2.128137e+002 1.000000e+001 2.662818e+002
         vertex 2.128137e+002 0.000000e+000 2.662818e+002
         vertex 2.082352e+002 0.000000e+000 2.857480e+002
      endloop
   endfacet
   facet normal -9.697946e-001 0.000000e+000 -2.439232e-001
      outer loop
         vertex 2.128137e+002 1.000000e+001 2.662818e+002
         vertex 2.082352e+002 0.000000e+000 2.857480e+002
         vertex 2.082352e+002 1.000000e+001 2.857480e+002
      endloop
   endfacet
   facet normal -9.529450e-001 0.000000e+000 -3.031434e-001
      outer loop
         vertex 2.082352e+002 1.000000e+001 2.857480e+002
         vertex 2.082352e+002 0.000000e+000 2.857480e+002
         vertex 2.018802e+002 0.000000e+000 3.047088e+002
      endloop
   endfacet
   facet normal -9.431512e-001 0.000000e+000 -3.323640e-001
      outer loop
         vertex 2.082352e+002 1.000000e+001 2.857480e+002
         vertex 2.018802e+002 0.000000e+000 3.047088e+002
         vertex 2.018802e+002 1.000000e+001 3.047088e+002
      endloop
   endfacet
   facet normal -9.209093e-001 0.000000e+000 -3.897769e-001
      outer loop
         vertex 2.018802e+002 1.000000e+001 3.047088e+002
         vertex 2.018802e+002 0.000000e+000 3.047088e+002
         vertex 1.938028e+002 0.000000e+000 3.230024e+002
      endloop
   endfacet
   facet normal -9.084612e-001 0.000000e+000 -4.179692e-001
      outer loop
         vertex 2.018802e+002 1.000000e+001 3.047088e+002
         vertex 1.938028e+002 0.000000e+000 3.230024e+002
         vertex 1.938028e+002 1.000000e+001 3.230024e+002
      endloop
   endfacet
   facet normal -8.810168e-001 0.000000e+000 -4.730850e-001
      outer loop
         vertex 1.938028e+002 1.000000e+001 3.230024e+002
         vertex 1.938028e+002 0.000000e+000 3.230024e+002
         vertex 1.840720e+002 0.000000e+000 3.404726e+002
      endloop
   endfacet
   facet normal -8.660206e-001 0.000000e+000 -5.000085e-001
      outer loop
         vertex 1.938028e+002 1.000000e+001 3.230024e+002
         vertex 1.840720e+002 0.000000e+000 3.404726e+002
         vertex 1.840720e+002 1.000000e+001 3.404726e+002
      endloop
   endfacet
   facet normal -8.336078e-001 0.000000e+000 -5.523569e-001
      outer loop
         vertex 1.840720e+002 1.000000e+001 3.404726e+002
         vertex 1.840720e+002 0.000000e+000 3.404726e+002
         vertex 1.727707e+002 0.000000e+000 3.569704e+002
      endloop
   endfacet
   facet normal -8.161913e-001 0.000000e+000 -5.777818e-001
      outer loop
         vertex 1.840720e+002 1.000000e+001 3.404726e+002
         vertex 1.727707e+002 0.000000e+000 3.569704e+002
         vertex 1.727707e+002 1.000000e+001 3.569704e+002
      endloop
   endfacet
   facet normal -7.790867e-001 0.000000e+000 -6.269162e-001
      outer loop
         vertex 1.727707e+002 1.000000e+001 3.569704e+002
         vertex 1.727707e+002 0.000000e+000 3.569704e+002
         vertex 1.599954e+002 0.000000e+000 3.723551e+002
      endloop
   endfacet
   facet normal -7.593986e-001 0.000000e+000 -6.506257e-001
      outer loop
         vertex 1.727707e+002 1.000000e+001 3.569704e+002
         vertex 1.599954e+002 0.000000e+000 3.723551e+002
         vertex 1.599954e+002 1.000000e+001 3.723551e+002
      endloop
   endfacet
   facet normal -7.179187e-001 0.000000e+000 -6.961269e-001
      outer loop
         vertex 1.599954e+002 1.000000e+001 3.723551e+002
         vertex 1.599954e+002 0.000000e+000 3.723551e+002
         vertex 1.458551e+002 0.000000e+000 3.864955e+002
      endloop
   endfacet
   facet normal -6.961269e-001 0.000000e+000 -7.179187e-001
      outer loop
         vertex 1.599954e+002 1.000000e+001 3.723551e+002
         vertex 1.458551e+002 0.000000e+000 3.864955e+002
         vertex 1.458551e+002 1.000000e+001 3.864955e+002
      endloop
   endfacet
   facet normal -6.506257e-001 0.000000e+000 -7.593986e-001
      outer loop
         vertex 1.458551e+002 1.000000e+001 3.864955e+002
         vertex 1.458551e+002 0.000000e+000 3.864955e+002
         vertex 1.304704e+002 0.000000e+000 3.992707e+002
      endloop
   endfacet
   facet normal -6.269162e-001 0.000000e+000 -7.790867e-001
      outer loop
         vertex 1.458551e+002 1.000000e+001 3.864955e+002
         vertex 1.304704e+002 0.000000e+000 3.992707e+002
         vertex 1.304704e+002 1.000000e+001 3.992707e+002
      endloop
   endfacet
   facet normal -5.777818e-001 0.000000e+000 -8.161913e-001
      outer loop
         vertex 1.304704e+002 1.000000e+001 3.992707e+002
         vertex 1.304704e+002 0.000000e+000 3.992707e+002
         vertex 1.139726e+002 0.000000e+000 4.105720e+002
      endloop
   endfacet
   facet normal -5.523569e-001 0.000000e+000 -8.336078e-001
      outer loop
         vertex 1.304704e+002 1.000000e+001 3.992707e+002
         vertex 1.139726e+002 0.000000e+000 4.105720e+002
         vertex 1.139726e+002 1.000000e+001 4.105720e+002
      endloop
   endfacet
   facet normal -5.000084e-001 0.000000e+000 -8.660206e-001
      outer loop
         vertex 1.139726e+002 1.000000e+001 4.105720e+002
         vertex 1.139726e+002 0.000000e+000 4.105720e+002
         vertex 9.650236e+001 0.000000e+000 4.203029e+002
      endloop
   endfacet
   facet normal -4.730849e-001 0.000000e+000 -8.810169e-001
      outer loop
         vertex 1.139726e+002 1.000000e+001 4.105720e+002
         vertex 9.650236e+001 0.000000e+000 4.203029e+002
         vertex 9.650236e+001 1.000000e+001 4.203029e+002
      endloop
   endfacet
   facet normal -4.179692e-001 0.000000e+000 -9.084612e-001
      outer loop
         vertex 9.650236e+001 1.000000e+001 4.203029e+002
         vertex 9.650236e+001 0.000000e+000 4.203029e+002
         vertex 7.820882e+001 0.000000e+000 4.283802e+002
      endloop
   endfacet
   facet normal -3.897769e-001 0.000000e+000 -9.209093e-001
      outer loop
         vertex 9.650236e+001 1.000000e+001 4.203029e+002
         vertex 7.820882e+001 0.000000e+000 4.283802e+002
         vertex 7.820882e+001 1.000000e+001 4.283802e+002
      endloop
   endfacet
   facet normal -3.323640e-001 0.000000e+000 -9.431512e-001
      outer loop
         vertex 7.820882e+001 1.000000e+001 4.283802e+002
         vertex 7.820882e+001 0.000000e+000 4.283802e+002
         vertex 5.924804e+001 0.000000e+000 4.347352e+002
      endloop
   endfacet
   facet normal -3.031434e-001 0.000000e+000 -9.529450e-001
      outer loop
         vertex 7.820882e+001 1.000000e+001 4.283802e+002
         vertex 5.924804e+001 0.000000e+000 4.347352e+002
         vertex 5.924804e+001 1.000000e+001 4.347352e+002
      endloop
   endfacet
   facet normal -2.439232e-001 0.000000e+000 -9.697946e-001
      outer loop
         vertex 5.924804e+001 1.000000e+001 4.347352e+002
         vertex 5.924804e+001 0.000000e+000 4.347352e+002
         vertex 3.978177e+001 0.000000e+000 4.393137e+002
      endloop
   endfacet
   facet normal -2.139236e-001 0.000000e+000 -9.768505e-001
      outer loop
         vertex 5.924804e+001 1.000000e+001 4.347352e+002
         vertex 3.978177e+001 0.000000e+000 4.393137e+002
         vertex 3.978177e+001 1.000000e+001 4.393137e+002
      endloop
   endfacet
   facet normal -1.534013e-001 0.000000e+000 -9.881640e-001
      outer loop
         vertex 3.978177e+001 1.000000e+001 4.393137e+002
         vertex 3.978177e+001 0.000000e+000 4.393137e+002
         vertex 1.997610e+001 0.000000e+000 4.420764e+002
      endloop
   endfacet
   facet normal -1.228786e-001 0.000000e+000 -9.924217e-001
      outer loop
         vertex 3.978177e+001 1.000000e+001 4.393137e+002
         vertex 1.997610e+001 0.000000e+000 4.420764e+002
         vertex 1.997610e+001 1.000000e+001 4.420764e+002
      endloop
   endfacet
   facet normal -6.157063e-002 0.000000e+000 -9.981027e-001
      outer loop
         vertex 1.997610e+001 1.000000e+001 4.420764e+002
         vertex 1.997610e+001 0.000000e+000 4.420764e+002
         vertex 2.651360e-014 0.000000e+000 4.430000e+002
      endloop
   endfacet
   facet normal -3.078532e-002 0.000000e+000 -9.995260e-001
      outer loop
         vertex 1.997610e+001 1.000000e+001 4.420764e+002
         vertex 2.651360e-014 0.000000e+000 4.430000e+002
         vertex 2.651360e-014 1.000000e+001 4.430000e+002
      endloop
   endfacet
   facet normal -1.000000e+000 0.000000e+000 0.000000e+000
      outer loop
         vertex 0.000000e+000 1.000000e+001 4.530000e+002
         vertex 0.000000e+000 1.000000e+001 4.430000e+002
         vertex 0.000000e+000 0.000000e+000 4.530000e+002
      endloop
   endfacet
   facet normal -1.000000e+000 0.000000e+000 0.000000e+000
      outer loop
         vertex 0.000000e+000 0.000000e+000 4.530000e+002
         vertex 0.000000e+000 1.000000e+001 4.430000e+002
         vertex 0.000000e+000 0.000000e+000 4.430000e+002
      endloop
   endfacet
   facet normal 0.000000e+000 1.000000e+000 0.000000e+000
      outer loop
         vertex 0.000000e+000 1.000000e+001 0.000000e+000
         vertex 2.651360e-014 1.000000e+001 1.000001e+001
         vertex 2.030330e+001 1.000000e+001 9.118319e-001
      endloop
   endfacet
   facet normal 0.000000e+000 1.000000e+000 0.000000e+000
      outer loop
         vertex 2.030330e+001 1.000000e+001 9.118319e-001
         vertex 2.651360e-014 1.000000e+001 1.000001e+001
         vertex 1.997610e+001 1.000000e+001 1.092355e+001
      endloop
   endfacet
   facet normal 0.000000e+000 1.000000e+000 0.000000e+000
      outer loop
         vertex 2.030330e+001 1.000000e+001 9.118319e-001
         vertex 1.997610e+001 1.000000e+001 1.092355e+001
         vertex 4.044314e+001 1.000000e+001 3.639951e+000
      endloop
   endfacet
   facet normal 0.000000e+000 1.000000e+000 0.000000e+000
      outer loop
         vertex 4.044314e+001 1.000000e+001 3.639951e+000
         vertex 1.997610e+001 1.000000e+001 1.092355e+001
         vertex 3.978177e+001 1.000000e+001 1.368633e+001
      endloop
   endfacet
   facet normal 0.000000e+000 1.000000e+000 0.000000e+000
      outer loop
         vertex 4.044314e+001 1.000000e+001 3.639951e+000
         vertex 3.978177e+001 1.000000e+001 1.368633e+001
         vertex 6.025735e+001 1.000000e+001 8.162424e+000
      endloop
   endfacet
   facet normal 0.000000e+000 1.000000e+000 0.000000e+000
      outer loop
         vertex 6.025735e+001 1.000000e+001 8.162424e+000
         vertex 3.978177e+001 1.000000e+001 1.368633e+001
         vertex 5.924804e+001 1.000000e+001 1.826476e+001
      endloop
   endfacet
   facet normal 0.000000e+000 1.000000e+000 0.000000e+000
      outer loop
         vertex 6.025735e+001 1.000000e+001 8.162424e+000
         vertex 5.924804e+001 1.000000e+001 1.826476e+001
         vertex 7.958640e+001 1.000000e+001 1.444280e+001
      endloop
   endfacet
   facet normal 0.000000e+000 1.000000e+000 0.000000e+000
      outer loop
         vertex 7.958640e+001 1.000000e+001 1.444280e+001
         vertex 5.924804e+001 1.000000e+001 1.826476e+001
         vertex 7.820882e+001 1.000000e+001 2.461977e+001
      endloop
   endfacet
   facet normal 0.000000e+000 1.000000e+000 0.000000e+000
      outer loop
         vertex 7.958640e+001 1.000000e+001 1.444280e+001
         vertex 7.820882e+001 1.000000e+001 2.461977e+001
         vertex 9.827467e+001 1.000000e+001 2.243055e+001
      endloop
   endfacet
   facet normal 0.000000e+000 1.000000e+000 0.000000e+000
      outer loop
         vertex 9.827467e+001 1.000000e+001 2.243055e+001
         vertex 7.820882e+001 1.000000e+001 2.461977e+001
         vertex 9.650236e+001 1.000000e+001 3.269715e+001
      endloop
   endfacet
   facet normal 0.000000e+000 1.000000e+000 0.000000e+000
      outer loop
         vertex 9.827467e+001 1.000000e+001 2.243055e+001
         vertex 9.650236e+001 1.000000e+001 3.269715e+001
         vertex 1.161717e+002 1.000000e+001 3.206135e+001
      endloop
   endfacet
   facet normal 0.000000e+000 1.000000e+000 0.000000e+000
      outer loop
         vertex 1.161717e+002 1.000000e+001 3.206135e+001
         vertex 9.650236e+001 1.000000e+001 3.269715e+001
         vertex 1.139726e+002 1.000000e+001 4.242800e+001
      endloop
   endfacet
   facet normal 0.000000e+000 1.000000e+000 0.000000e+000
      outer loop
         vertex 1.161717e+002 1.000000e+001 3.206135e+001
         vertex 1.139726e+002 1.000000e+001 4.242800e+001
         vertex 1.331334e+002 1.000000e+001 4.325765e+001
      endloop
   endfacet
   facet normal 0.000000e+000 1.000000e+000 0.000000e+000
      outer loop
         vertex 1.331334e+002 1.000000e+001 4.325765e+001
         vertex 1.139726e+002 1.000000e+001 4.242800e+001
         vertex 1.304704e+002 1.000000e+001 5.372928e+001
      endloop
   endfacet
   facet normal 0.000000e+000 1.000000e+000 0.000000e+000
      outer loop
         vertex 1.331334e+002 1.000000e+001 4.325765e+001
         vertex 1.304704e+002 1.000000e+001 5.372928e+001
         vertex 1.490231e+002 1.000000e+001 5.592932e+001
      endloop
   endfacet
   facet normal 0.000000e+000 1.000000e+000 0.000000e+000
      outer loop
         vertex 1.490231e+002 1.000000e+001 5.592932e+001
         vertex 1.304704e+002 1.000000e+001 5.372928e+001
         vertex 1.458551e+002 1.000000e+001 6.650457e+001
      endloop
   endfacet
   facet normal 0.000000e+000 1.000000e+000 0.000000e+000
      outer loop
         vertex 1.490231e+002 1.000000e+001 5.592932e+001
         vertex 1.458551e+002 1.000000e+001 6.650457e+001
         vertex 1.637130e+002 1.000000e+001 6.997432e+001
      endloop
   endfacet
   facet normal 0.000000e+000 1.000000e+000 0.000000e+000
      outer loop
         vertex 1.637130e+002 1.000000e+001 6.997432e+001
         vertex 1.458551e+002 1.000000e+001 6.650457e+001
         vertex 1.599954e+002 1.000000e+001 8.064489e+001
      endloop
   endfacet
   facet normal 0.000000e+000 1.000000e+000 0.000000e+000
      outer loop
         vertex 1.637130e+002 1.000000e+001 6.997432e+001
         vertex 1.599954e+002 1.000000e+001 8.064489e+001
         vertex 1.770848e+002 1.000000e+001 8.527957e+001
      endloop
   endfacet
   facet normal 0.000000e+000 1.000000e+000 0.000000e+000
      outer loop
         vertex 1.770848e+002 1.000000e+001 8.527957e+001
         vertex 1.599954e+002 1.000000e+001 8.064489e+001
         vertex 1.727707e+002 1.000000e+001 9.602961e+001
      endloop
   endfacet
   facet normal 0.000000e+000 1.000000e+000 0.000000e+000
      outer loop
         vertex 1.770848e+002 1.000000e+001 8.527957e+001
         vertex 1.727707e+002 1.000000e+001 9.602961e+001
         vertex 1.890308e+002 1.000000e+001 1.017218e+002
      endloop
   endfacet
   facet normal 0.000000e+000 1.000000e+000 0.000000e+000
      outer loop
         vertex 1.890308e+002 1.000000e+001 1.017218e+002
         vertex 1.727707e+002 1.000000e+001 9.602961e+001
         vertex 1.840720e+002 1.000000e+001 1.125274e+002
      endloop
   endfacet
   facet normal 0.000000e+000 1.000000e+000 0.000000e+000
      outer loop
         vertex 1.890308e+002 1.000000e+001 1.017218e+002
         vertex 1.840720e+002 1.000000e+001 1.125274e+002
         vertex 1.994549e+002 1.000000e+001 1.191688e+002
      endloop
   endfacet
   facet normal 0.000000e+000 1.000000e+000 0.000000e+000
      outer loop
         vertex 1.994549e+002 1.000000e+001 1.191688e+002
         vertex 1.840720e+002 1.000000e+001 1.125274e+002
         vertex 1.938028e+002 1.000000e+001 1.299976e+002
      endloop
   endfacet
   facet normal 0.000000e+000 1.000000e+000 0.000000e+000
      outer loop
         vertex 1.994549e+002 1.000000e+001 1.191688e+002
         vertex 1.938028e+002 1.000000e+001 1.299976e+002
         vertex 2.082730e+002 1.000000e+001 1.374798e+002
      endloop
   endfacet
   facet normal 0.000000e+000 1.000000e+000 0.000000e+000
      outer loop
         vertex 2.082730e+002 1.000000e+001 1.374798e+002
         vertex 1.938028e+002 1.000000e+001 1.299976e+002
         vertex 2.018802e+002 1.000000e+001 1.482912e+002
      endloop
   endfacet
   facet normal 0.000000e+000 1.000000e+000 0.000000e+000
      outer loop
         vertex 2.082730e+002 1.000000e+001 1.374798e+002
         vertex 2.018802e+002 1.000000e+001 1.482912e+002
         vertex 2.154143e+002 1.000000e+001 1.565077e+002
      endloop
   endfacet
   facet normal 0.000000e+000 1.000000e+000 0.000000e+000
      outer loop
         vertex 2.154143e+002 1.000000e+001 1.565077e+002
         vertex 2.018802e+002 1.000000e+001 1.482912e+002
         vertex 2.082352e+002 1.000000e+001 1.672520e+002
      endloop
   endfacet
   facet normal 0.000000e+000 1.000000e+000 0.000000e+000
      outer loop
         vertex 2.154143e+002 1.000000e+001 1.565077e+002
         vertex 2.082352e+002 1.000000e+001 1.672520e+002
         vertex 2.208212e+002 1.000000e+001 1.760990e+002
      endloop
   endfacet
   facet normal 0.000000e+000 1.000000e+000 0.000000e+000
      outer loop
         vertex 2.208212e+002 1.000000e+001 1.760990e+002
         vertex 2.082352e+002 1.000000e+001 1.672520e+002
         vertex 2.128137e+002 1.000000e+001 1.867182e+002
      endloop
   endfacet
   facet normal 0.000000e+000 1.000000e+000 0.000000e+000
      outer loop
         vertex 2.208212e+002 1.000000e+001 1.760990e+002
         vertex 2.128137e+002 1.000000e+001 1.867182e+002
         vertex 2.244501e+002 1.000000e+001 1.960962e+002
      endloop
   endfacet
   facet normal 0.000000e+000 1.000000e+000 0.000000e+000
      outer loop
         vertex 2.244501e+002 1.000000e+001 1.960962e+002
         vertex 2.128137e+002 1.000000e+001 1.867182e+002
         vertex 2.155765e+002 1.000000e+001 2.065239e+002
      endloop
   endfacet
   facet normal 0.000000e+000 1.000000e+000 0.000000e+000
      outer loop
         vertex 2.244501e+002 1.000000e+001 1.960962e+002
         vertex 2.155765e+002 1.000000e+001 2.065239e+002
         vertex 2.262719e+002 1.000000e+001 2.163381e+002
      endloop
   endfacet
   facet normal 0.000000e+000 1.000000e+000 0.000000e+000
      outer loop
         vertex 2.262719e+002 1.000000e+001 2.163381e+002
         vertex 2.155765e+002 1.000000e+001 2.065239e+002
         vertex 2.165000e+002 1.000000e+001 2.265000e+002
      endloop
   endfacet
   facet normal 0.000000e+000 1.000000e+000 0.000000e+000
      outer loop
         vertex 0.000000e+000 1.000000e+001 4.430000e+002
         vertex 0.000000e+000 1.000000e+001 4.530000e+002
         vertex 1.997610e+001 1.000000e+001 4.420764e+002
      endloop
   endfacet
   facet normal 0.000000e+000 1.000000e+000 0.000000e+000
      outer loop
         vertex 1.997610e+001 1.000000e+001 4.420764e+002
         vertex 0.000000e+000 1.000000e+001 4.530000e+002
         vertex 2.030330e+001 1.000000e+001 4.520882e+002
      endloop
   endfacet
   facet normal 0.000000e+000 1.000000e+000 0.000000e+000
      outer loop
         vertex 1.997610e+001 1.000000e+001 4.420764e+002
         vertex 2.030330e+001 1.000000e+001 4.520882e+002
         vertex 3.978177e+001 1.000000e+001 4.393137e+002
      endloop
   endfacet
   facet normal 0.000000e+000 1.000000e+000 0.000000e+000
      outer loop
         vertex 3.978177e+001 1.000000e+001 4.393137e+002
         vertex 2.030330e+001 1.000000e+001 4.520882e+002
         vertex 4.044314e+001 1.000000e+001 4.493601e+002
      endloop
   endfacet
   facet normal 0.000000e+000 1.000000e+000 0.000000e+000
      outer loop
         vertex 3.978177e+001 1.000000e+001 4.393137e+002
         vertex 4.044314e+001 1.000000e+001 4.493601e+002
         vertex 5.924804e+001 1.000000e+001 4.347352e+002
      endloop
   endfacet
   facet normal 0.000000e+000 1.000000e+000 0.000000e+000
      outer loop
         vertex 5.924804e+001 1.000000e+001 4.347352e+002
         vertex 4.044314e+001 1.000000e+001 4.493601e+002
         vertex 6.025735e+001 1.000000e+001 4.448376e+002
      endloop
   endfacet
   facet normal 0.000000e+000 1.000000e+000 0.000000e+000
      outer loop
         vertex 5.924804e+001 1.000000e+001 4.347352e+002
         vertex 6.025735e+001 1.000000e+001 4.448376e+002
         vertex 7.820882e+001 1.000000e+001 4.283802e+002
      endloop
   endfacet
   facet normal 0.000000e+000 1.000000e+000 0.000000e+000
      outer loop
         vertex 7.820882e+001 1.000000e+001 4.283802e+002
         vertex 6.025735e+001 1.000000e+001 4.448376e+002
         vertex 7.958640e+001 1.000000e+001 4.385572e+002
      endloop
   endfacet
   facet normal 0.000000e+000 1.000000e+000 0.000000e+000
      outer loop
         vertex 7.820882e+001 1.000000e+001 4.283802e+002
         vertex 7.958640e+001 1.000000e+001 4.385572e+002
         vertex 9.650236e+001 1.000000e+001 4.203029e+002
      endloop
   endfacet
   facet normal 0.000000e+000 1.000000e+000 0.000000e+000
      outer loop
         vertex 9.650236e+001 1.000000e+001 4.203029e+002
         vertex 7.958640e+001 1.000000e+001 4.385572e+002
         vertex 9.827467e+001 1.000000e+001 4.305695e+002
      endloop
   endfacet
   facet normal 0.000000e+000 1.000000e+000 0.000000e+000
      outer loop
         vertex 9.650236e+001 1.000000e+001 4.203029e+002
         vertex 9.827467e+001 1.000000e+001 4.305695e+002
         vertex 1.139726e+002 1.000000e+001 4.105720e+002
      endloop
   endfacet
   facet normal 0.000000e+000 1.000000e+000 0.000000e+000
      outer loop
         vertex 1.139726e+002 1.000000e+001 4.105720e+002
         vertex 9.827467e+001 1.000000e+001 4.305695e+002
         vertex 1.161717e+002 1.000000e+001 4.209387e+002
      endloop
   endfacet
   facet normal 0.000000e+000 1.000000e+000 0.000000e+000
      outer loop
         vertex 1.139726e+002 1.000000e+001 4.105720e+002
         vertex 1.161717e+002 1.000000e+001 4.209387e+002
         vertex 1.304704e+002 1.000000e+001 3.992707e+002
      endloop
   endfacet
   facet normal 0.000000e+000 1.000000e+000 0.000000e+000
      outer loop
         vertex 1.304704e+002 1.000000e+001 3.992707e+002
         vertex 1.161717e+002 1.000000e+001 4.209387e+002
         vertex 1.331334e+002 1.000000e+001 4.097424e+002
      endloop
   endfacet
   facet normal 0.000000e+000 1.000000e+000 0.000000e+000
      outer loop
         vertex 1.304704e+002 1.000000e+001 3.992707e+002
         vertex 1.331334e+002 1.000000e+001 4.097424e+002
         vertex 1.458551e+002 1.000000e+001 3.864955e+002
      endloop
   endfacet
   facet normal 0.000000e+000 1.000000e+000 0.000000e+000
      outer loop
         vertex 1.458551e+002 1.000000e+001 3.864955e+002
         vertex 1.331334e+002 1.000000e+001 4.097424e+002
         vertex 1.490231e+002 1.000000e+001 3.970707e+002
      endloop
   endfacet
   facet normal 0.000000e+000 1.000000e+000 0.000000e+000
      outer loop
         vertex 1.458551e+002 1.000000e+001 3.864955e+002
         vertex 1.490231e+002 1.000000e+001 3.970707e+002
         vertex 1.599954e+002 1.000000e+001 3.723551e+002
      endloop
   endfacet
   facet normal 0.000000e+000 1.000000e+000 0.000000e+000
      outer loop
         vertex 1.599954e+002 1.000000e+001 3.723551e+002
         vertex 1.490231e+002 1.000000e+001 3.970707e+002
         vertex 1.637130e+002 1.000000e+001 3.830257e+002
      endloop
   endfacet
   facet normal 0.000000e+000 1.000000e+000 0.000000e+000
      outer loop
         vertex 1.599954e+002 1.000000e+001 3.723551e+002
         vertex 1.637130e+002 1.000000e+001 3.830257e+002
         vertex 1.727707e+002 1.000000e+001 3.569704e+002
      endloop
   endfacet
   facet normal 0.000000e+000 1.000000e+000 0.000000e+000
      outer loop
         vertex 1.727707e+002 1.000000e+001 3.569704e+002
         vertex 1.637130e+002 1.000000e+001 3.830257e+002
         vertex 1.770848e+002 1.000000e+001 3.677204e+002
      endloop
   endfacet
   facet normal 0.000000e+000 1.000000e+000 0.000000e+000
      outer loop
         vertex 1.727707e+002 1.000000e+001 3.569704e+002
         vertex 1.770848e+002 1.000000e+001 3.677204e+002
         vertex 1.840720e+002 1.000000e+001 3.404726e+002
      endloop
   endfacet
   facet normal 0.000000e+000 1.000000e+000 0.000000e+000
      outer loop
         vertex 1.840720e+002 1.000000e+001 3.404726e+002
         vertex 1.770848e+002 1.000000e+001 3.677204e+002
         vertex 1.890308e+002 1.000000e+001 3.512782e+002
      endloop
   endfacet
   facet normal 0.000000e+000 1.000000e+000 0.000000e+000
      outer loop
         vertex 1.840720e+002 1.000000e+001 3.404726e+002
         vertex 1.890308e+002 1.000000e+001 3.512782e+002
         vertex 1.938028e+002 1.000000e+001 3.230024e+002
      endloop
   endfacet
   facet normal 0.000000e+000 1.000000e+000 0.000000e+000
      outer loop
         vertex 1.938028e+002 1.000000e+001 3.230024e+002
         vertex 1.890308e+002 1.000000e+001 3.512782e+002
         vertex 1.994549e+002 1.000000e+001 3.338312e+002
      endloop
   endfacet
   facet normal 0.000000e+000 1.000000e+000 0.000000e+000
      outer loop
         vertex 1.938028e+002 1.000000e+001 3.230024e+002
         vertex 1.994549e+002 1.000000e+001 3.338312e+002
         vertex 2.018802e+002 1.000000e+001 3.047088e+002
      endloop
   endfacet
   facet normal 0.000000e+000 1.000000e+000 0.000000e+000
      outer loop
         vertex 2.018802e+002 1.000000e+001 3.047088e+002
         vertex 1.994549e+002 1.000000e+001 3.338312e+002
         vertex 2.082730e+002 1.000000e+001 3.155202e+002
      endloop
   endfacet
   facet normal 0.000000e+000 1.000000e+000 0.000000e+000
      outer loop
         vertex 2.018802e+002 1.000000e+001 3.047088e+002
         vertex 2.082730e+002 1.000000e+001 3.155202e+002
         vertex 2.082352e+002 1.000000e+001 2.857480e+002
      endloop
   endfacet
   facet normal 0.000000e+000 1.000000e+000 0.000000e+000
      outer loop
         vertex 2.082352e+002 1.000000e+001 2.857480e+002
         vertex 2.082730e+002 1.000000e+001 3.155202e+002
         vertex 2.154143e+002 1.000000e+001 2.964923e+002
      endloop
   endfacet
   facet normal 0.000000e+000 1.000000e+000 0.000000e+000
      outer loop
         vertex 2.082352e+002 1.000000e+001 2.857480e+002
         vertex 2.154143e+002 1.000000e+001 2.964923e+002
         vertex 2.128137e+002 1.000000e+001 2.662818e+002
      endloop
   endfacet
   facet normal 0.000000e+000 1.000000e+000 0.000000e+000
      outer loop
         vertex 2.128137e+002 1.000000e+001 2.662818e+002
         vertex 2.154143e+002 1.000000e+001 2.964923e+002
         vertex 2.208212e+002 1.000000e+001 2.769010e+002
      endloop
   endfacet
   facet normal 0.000000e+000 1.000000e+000 0.000000e+000
      outer loop
         vertex 2.128137e+002 1.000000e+001 2.662818e+002
         vertex 2.208212e+002 1.000000e+001 2.769010e+002
         vertex 2.155765e+002 1.000000e+001 2.464761e+002
      endloop
   endfacet
   facet normal 0.000000e+000 1.000000e+000 0.000000e+000
      outer loop
         vertex 2.155765e+002 1.000000e+001 2.464761e+002
         vertex 2.208212e+002 1.000000e+001 2.769010e+002
         vertex 2.244501e+002 1.000000e+001 2.569038e+002
      endloop
   endfacet
   facet normal 0.000000e+000 1.000000e+000 0.000000e+000
      outer loop
         vertex 2.155765e+002 1.000000e+001 2.464761e+002
         vertex 2.244501e+002 1.000000e+001 2.569038e+002
         vertex 2.165000e+002 1.000000e+001 2.265000e+002
      endloop
   endfacet
   facet normal 0.000000e+000 1.000000e+000 0.000000e+000
      outer loop
         vertex 2.165000e+002 1.000000e+001 2.265000e+002
         vertex 2.244501e+002 1.000000e+001 2.569038e+002
         vertex 2.262719e+002 1.000000e+001 2.366619e+002
      endloop
   endfacet
   facet normal 0.000000e+000 1.000000e+000 0.000000e+000
      outer loop
         vertex 2.165000e+002 1.000000e+001 2.265000e+002
         vertex 2.262719e+002 1.000000e+001 2.366619e+002
         vertex 2.262719e+002 1.000000e+001 2.163381e+002
      endloop
   endfacet
   facet normal 0.000000e+000 -1.000000e+000 0.000000e+000
      outer loop
         vertex 2.651360e-014 0.000000e+000 1.000001e+001
         vertex 0.000000e+000 0.000000e+000 0.000000e+000
         vertex 1.997610e+001 0.000000e+000 1.092355e+001
      endloop
   endfacet
   facet normal 0.000000e+000 -1.000000e+000 0.000000e+000
      outer loop
         vertex 1.997610e+001 0.000000e+000 1.092355e+001
         vertex 0.000000e+000 0.000000e+000 0.000000e+000
         vertex 2.030330e+001 0.000000e+000 9.118319e-001
      endloop
   endfacet
   facet normal 0.000000e+000 -1.000000e+000 0.000000e+000
      outer loop
         vertex 1.997610e+001 0.000000e+000 1.092355e+001
         vertex 2.030330e+001 0.000000e+000 9.118319e-001
         vertex 3.978177e+001 0.000000e+000 1.368633e+001
      endloop
   endfacet
   facet normal 0.000000e+000 -1.000000e+000 0.000000e+000
      outer loop
         vertex 3.978177e+001 0.000000e+000 1.368633e+001
         vertex 2.030330e+001 0.000000e+000 9.118319e-001
         vertex 4.044314e+001 0.000000e+000 3.639951e+000
      endloop
   endfacet
   facet normal 0.000000e+000 -1.000000e+000 0.000000e+000
      outer loop
         vertex 3.978177e+001 0.000000e+000 1.368633e+001
         vertex 4.044314e+001 0.000000e+000 3.639951e+000
         vertex 5.924804e+001 0.000000e+000 1.826476e+001
      endloop
   endfacet
   facet normal 0.000000e+000 -1.000000e+000 0.000000e+000
      outer loop
         vertex 5.924804e+001 0.000000e+000 1.826476e+001
         vertex 4.044314e+001 0.000000e+000 3.639951e+000
         vertex 6.025735e+001 0.000000e+000 8.162424e+000
      endloop
   endfacet
   facet normal 0.000000e+000 -1.000000e+000 0.000000e+000
      outer loop
         vertex 5.924804e+001 0.000000e+000 1.826476e+001
         vertex 6.025735e+001 0.000000e+000 8.162424e+000
         vertex 7.820882e+001 0.000000e+000 2.461977e+001
      endloop
   endfacet
   facet normal 0.000000e+000 -1.000000e+000 0.000000e+000
      outer loop
         vertex 7.820882e+001 0.000000e+000 2.461977e+001
         vertex 6.025735e+001 0.000000e+000 8.162424e+000
         vertex 7.958640e+001 0.000000e+000 1.444280e+001
      endloop
   endfacet
   facet normal 0.000000e+000 -1.000000e+000 0.000000e+000
      outer loop
         vertex 7.820882e+001 0.000000e+000 2.461977e+001
         vertex 7.958640e+001 0.000000e+000 1.444280e+001
         vertex 9.650236e+001 0.000000e+000 3.269715e+001
      endloop
   endfacet
   facet normal 0.000000e+000 -1.000000e+000 0.000000e+000
      outer loop
         vertex 9.650236e+001 0.000000e+000 3.269715e+001
         vertex 7.958640e+001 0.000000e+000 1.444280e+001
         vertex 9.827467e+001 0.000000e+000 2.243055e+001
      endloop
   endfacet
   facet normal 0.000000e+000 -1.000000e+000 0.000000e+000
      outer loop
         vertex 9.650236e+001 0.000000e+000 3.269715e+001
         vertex 9.827467e+001 0.000000e+000 2.243055e+001
         vertex 1.139726e+002 0.000000e+000 4.242800e+001
      endloop
   endfacet
   facet normal 0.000000e+000 -1.000000e+000 0.000000e+000
      outer loop
         vertex 1.139726e+002 0.000000e+000 4.242800e+001
         vertex 9.827467e+001 0.000000e+000 2.243055e+001
         vertex 1.161717e+002 0.000000e+000 3.206135e+001
      endloop
   endfacet
   facet normal 0.000000e+000 -1.000000e+000 0.000000e+000
      outer loop
         vertex 1.139726e+002 0.000000e+000 4.242800e+001
         vertex 1.161717e+002 0.000000e+000 3.206135e+001
         vertex 1.304704e+002 0.000000e+000 5.372928e+001
      endloop
   endfacet
   facet normal 0.000000e+000 -1.000000e+000 0.000000e+000
      outer loop
         vertex 1.304704e+002 0.000000e+000 5.372928e+001
         vertex 1.161717e+002 0.000000e+000 3.206135e+001
         vertex 1.331334e+002 0.000000e+000 4.325765e+001
      endloop
   endfacet
   facet normal 0.000000e+000 -1.000000e+000 0.000000e+000
      outer loop
         vertex 1.304704e+002 0.000000e+000 5.372928e+001
         vertex 1.331334e+002 0.000000e+000 4.325765e+001
         vertex 1.458551e+002 0.000000e+000 6.650457e+001
      endloop
   endfacet
   facet normal 0.000000e+000 -1.000000e+000 0.000000e+000
      outer loop
         vertex 1.458551e+002 0.000000e+000 6.650457e+001
         vertex 1.331334e+002 0.000000e+000 4.325765e+001
         vertex 1.490231e+002 0.000000e+000 5.592932e+001
      endloop
   endfacet
   facet normal 0.000000e+000 -1.000000e+000 0.000000e+000
      outer loop
         vertex 1.458551e+002 0.000000e+000 6.650457e+001
         vertex 1.490231e+002 0.000000e+000 5.592932e+001
         vertex 1.599954e+002 0.000000e+000 8.064489e+001
      endloop
   endfacet
   facet normal 0.000000e+000 -1.000000e+000 0.000000e+000
      outer loop
         vertex 1.599954e+002 0.000000e+000 8.064489e+001
         vertex 1.490231e+002 0.000000e+000 5.592932e+001
         vertex 1.637130e+002 0.000000e+000 6.997432e+001
      endloop
   endfacet
   facet normal 0.000000e+000 -1.000000e+000 0.000000e+000
      outer loop
         vertex 1.599954e+002 0.000000e+000 8.064489e+001
         vertex 1.637130e+002 0.000000e+000 6.997432e+001
         vertex 1.727707e+002 0.000000e+000 9.602961e+001
      endloop
   endfacet
   facet normal 0.000000e+000 -1.000000e+000 0.000000e+000
      outer loop
         vertex 1.727707e+002 0.000000e+000 9.602961e+001
         vertex 1.637130e+002 0.000000e+000 6.997432e+001
         vertex 1.770848e+002 0.000000e+000 8.527957e+001
      endloop
   endfacet
   facet normal 0.000000e+000 -1.000000e+000 0.000000e+000
      outer loop
         vertex 1.727707e+002 0.000000e+000 9.602961e+001
         vertex 1.770848e+002 0.000000e+000 8.527957e+001
         vertex 1.840720e+002 0.000000e+000 1.125274e+002
      endloop
   endfacet
   facet normal 0.000000e+000 -1.000000e+000 0.000000e+000
      outer loop
         vertex 1.840720e+002 0.000000e+000 1.125274e+002
         vertex 1.770848e+002 0.000000e+000 8.527957e+001
         vertex 1.890308e+002 0.000000e+000 1.017218e+002
      endloop
   endfacet
   facet normal 0.000000e+000 -1.000000e+000 0.000000e+000
      outer loop
         vertex 1.840720e+002 0.000000e+000 1.125274e+002
         vertex 1.890308e+002 0.000000e+000 1.017218e+002
         vertex 1.938028e+002 0.000000e+000 1.299976e+002
      endloop
   endfacet
   facet normal 0.000000e+000 -1.000000e+000 0.000000e+000
      outer loop
         vertex 1.938028e+002 0.000000e+000 1.299976e+002
         vertex 1.890308e+002 0.000000e+000 1.017218e+002
         vertex 1.994549e+002 0.000000e+000 1.191688e+002
      endloop
   endfacet
   facet normal 0.000000e+000 -1.000000e+000 0.000000e+000
      outer loop
         vertex 1.938028e+002 0.000000e+000 1.299976e+002
         vertex 1.994549e+002 0.000000e+000 1.191688e+002
         vertex 2.018802e+002 0.000000e+000 1.482912e+002
      endloop
   endfacet
   facet normal 0.000000e+000 -1.000000e+000 0.000000e+000
      outer loop
         vertex 2.018802e+002 0.000000e+000 1.482912e+002
         vertex 1.994549e+002 0.000000e+000 1.191688e+002
         vertex 2.082730e+002 0.000000e+000 1.374798e+002
      endloop
   endfacet
   facet normal 0.000000e+000 -1.000000e+000 0.000000e+000
      outer loop
         vertex 2.018802e+002 0.000000e+000 1.482912e+002
         vertex 2.082730e+002 0.000000e+000 1.374798e+002
         vertex 2.082352e+002 0.000000e+000 1.672520e+002
      endloop
   endfacet
   facet normal 0.000000e+000 -1.000000e+000 0.000000e+000
      outer loop
         vertex 2.082352e+002 0.000000e+000 1.672520e+002
         vertex 2.082730e+002 0.000000e+000 1.374798e+002
         vertex 2.154143e+002 0.000000e+000 1.565077e+002
      endloop
   endfacet
   facet normal 0.000000e+000 -1.000000e+000 0.000000e+000
      outer loop
         vertex 2.082352e+002 0.000000e+000 1.672520e+002
         vertex 2.154143e+002 0.000000e+000 1.565077e+002
         vertex 2.128137e+002 0.000000e+000 1.867182e+002
      endloop
   endfacet
   facet normal 0.000000e+000 -1.000000e+000 0.000000e+000
      outer loop
         vertex 2.128137e+002 0.000000e+000 1.867182e+002
         vertex 2.154143e+002 0.000000e+000 1.565077e+002
         vertex 2.208212e+002 0.000000e+000 1.760990e+002
      endloop
   endfacet
   facet normal 0.000000e+000 -1.000000e+000 0.000000e+000
      outer loop
         vertex 2.128137e+002 0.000000e+000 1.867182e+002
         vertex 2.208212e+002 0.000000e+000 1.760990e+002
         vertex 2.155765e+002 0.000000e+000 2.065239e+002
      endloop
   endfacet
   facet normal 0.000000e+000 -1.000000e+000 0.000000e+000
      outer loop
         vertex 2.155765e+002 0.000000e+000 2.065239e+002
         vertex 2.208212e+002 0.000000e+000 1.760990e+002
         vertex 2.244501e+002 0.000000e+000 1.960962e+002
      endloop
   endfacet
   facet normal 0.000000e+000 -1.000000e+000 0.000000e+000
      outer loop
         vertex 2.155765e+002 0.000000e+000 2.065239e+002
         vertex 2.244501e+002 0.000000e+000 1.960962e+002
         vertex 2.165000e+002 0.000000e+000 2.265000e+002
      endloop
   endfacet
   facet normal 0.000000e+000 -1.000000e+000 0.000000e+000
      outer loop
         vertex 0.000000e+000 0.000000e+000 4.530000e+002
         vertex 2.651360e-014 0.000000e+000 4.430000e+002
         vertex 2.030330e+001 0.000000e+000 4.520882e+002
      endloop
   endfacet
   facet normal 0.000000e+000 -1.000000e+000 0.000000e+000
      outer loop
         vertex 2.030330e+001 0.000000e+000 4.520882e+002
         vertex 2.651360e-014 0.000000e+000 4.430000e+002
         vertex 1.997610e+001 0.000000e+000 4.420764e+002
      endloop
   endfacet
   facet normal 0.000000e+000 -1.000000e+000 0.000000e+000
      outer loop
         vertex 2.030330e+001 0.000000e+000 4.520882e+002
         vertex 1.997610e+001 0.000000e+000 4.420764e+002
         vertex 4.044314e+001 0.000000e+000 4.493601e+002
      endloop
   endfacet
   facet normal 0.000000e+000 -1.000000e+000 0.000000e+000
      outer loop
         vertex 4.044314e+001 0.000000e+000 4.493601e+002
         vertex 1.997610e+001 0.000000e+000 4.420764e+002
         vertex 3.978177e+001 0.000000e+000 4.393137e+002
      endloop
   endfacet
   facet normal 0.000000e+000 -1.000000e+000 0.000000e+000
      outer loop
         vertex 4.044314e+001 0.000000e+000 4.493601e+002
         vertex 3.978177e+001 0.000000e+000 4.393137e+002
         vertex 6.025735e+001 0.000000e+000 4.448376e+002
      endloop
   endfacet
   facet normal 0.000000e+000 -1.000000e+000 0.000000e+000
      outer loop
         vertex 6.025735e+001 0.000000e+000 4.448376e+002
         vertex 3.978177e+001 0.000000e+000 4.393137e+002
         vertex 5.924804e+001 0.000000e+000 4.347352e+002
      endloop
   endfacet
   facet normal 0.000000e+000 -1.000000e+000 0.000000e+000
      outer loop
         vertex 6.025735e+001 0.000000e+000 4.448376e+002
         vertex 5.924804e+001 0.000000e+000 4.347352e+002
         vertex 7.958640e+001 0.000000e+000 4.385572e+002
      endloop
   endfacet
   facet normal 0.000000e+000 -1.000000e+000 0.000000e+000
      outer loop
         vertex 7.958640e+001 0.000000e+000 4.385572e+002
         vertex 5.924804e+001 0.000000e+000 4.347352e+002
         vertex 7.820882e+001 0.000000e+000 4.283802e+002
      endloop
   endfacet
   facet normal 0.000000e+000 -1.000000e+000 0.000000e+000
      outer loop
         vertex 7.958640e+001 0.000000e+000 4.385572e+002
         vertex 7.820882e+001 0.000000e+000 4.283802e+002
         vertex 9.827467e+001 0.000000e+000 4.305695e+002
      endloop
   endfacet
   facet normal 0.000000e+000 -1.000000e+000 0.000000e+000
      outer loop
         vertex 9.827467e+001 0.000000e+000 4.305695e+002
         vertex 7.820882e+001 0.000000e+000 4.283802e+002
         vertex 9.650236e+001 0.000000e+000 4.203029e+002
      endloop
   endfacet
   facet normal 0.000000e+000 -1.000000e+000 0.000000e+000
      outer loop
         vertex 9.827467e+001 0.000000e+000 4.305695e+002
         vertex 9.650236e+001 0.000000e+000 4.203029e+002
         vertex 1.161717e+002 0.000000e+000 4.209387e+002
      endloop
   endfacet
   facet normal 0.000000e+000 -1.000000e+000 0.000000e+000
      outer loop
         vertex 1.161717e+002 0.000000e+000 4.209387e+002
         vertex 9.650236e+001 0.000000e+000 4.203029e+002
         vertex 1.139726e+002 0.000000e+000 4.105720e+002
      endloop
   endfacet
   facet normal 0.000000e+000 -1.000000e+000 0.000000e+000
      outer loop
         vertex 1.161717e+002 0.000000e+000 4.209387e+002
         vertex 1.139726e+002 0.000000e+000 4.105720e+002
         vertex 1.331334e+002 0.000000e+000 4.097424e+002
      endloop
   endfacet
   facet normal 0.000000e+000 -1.000000e+000 0.000000e+000
      outer loop
         vertex 1.331334e+002 0.000000e+000 4.097424e+002
         vertex 1.139726e+002 0.000000e+000 4.105720e+002
         vertex 1.304704e+002 0.000000e+000 3.992707e+002
      endloop
   endfacet
   facet normal 0.000000e+000 -1.000000e+000 0.000000e+000
      outer loop
         vertex 1.331334e+002 0.000000e+000 4.097424e+002
         vertex 1.304704e+002 0.000000e+000 3.992707e+002
         vertex 1.490231e+002 0.000000e+000 3.970707e+002
      endloop
   endfacet
   facet normal 0.000000e+000 -1.000000e+000 0.000000e+000
      outer loop
         vertex 1.490231e+002 0.000000e+000 3.970707e+002
         vertex 1.304704e+002 0.000000e+000 3.992707e+002
         vertex 1.458551e+002 0.000000e+000 3.864955e+002
      endloop
   endfacet
   facet normal 0.000000e+000 -1.000000e+000 0.000000e+000
      outer loop
         vertex 1.490231e+002 0.000000e+000 3.970707e+002
         vertex 1.458551e+002 0.000000e+000 3.864955e+002
         vertex 1.637130e+002 0.000000e+000 3.830257e+002
      endloop
   endfacet
   facet normal 0.000000e+000 -1.000000e+000 0.000000e+000
      outer loop
         vertex 1.637130e+002 0.000000e+000 3.830257e+002
         vertex 1.458551e+002 0.000000e+000 3.864955e+002
         vertex 1.599954e+002 0.000000e+000 3.723551e+002
      endloop
   endfacet
   facet normal 0.000000e+000 -1.000000e+000 0.000000e+000
      outer loop
         vertex 1.637130e+002 0.000000e+000 3.830257e+002
         vertex 1.599954e+002 0.000000e+000 3.723551e+002
         vertex 1.770848e+002 0.000000e+000 3.677204e+002
      endloop
   endfacet
   facet normal 0.000000e+000 -1.000000e+000 0.000000e+000
      outer loop
         vertex 1.770848e+002 0.000000e+000 3.677204e+002
         vertex 1.599954e+002 0.000000e+000 3.723551e+002
         vertex 1.727707e+002 0.000000e+000 3.569704e+002
      endloop
   endfacet
   facet normal 0.000000e+000 -1.000000e+000 0.000000e+000
      outer loop
         vertex 1.770848e+002 0.000000e+000 3.677204e+002
         vertex 1.727707e+002 0.000000e+000 3.569704e+002
         vertex 1.890308e+002 0.000000e+000 3.512782e+002
      endloop
   endfacet
   facet normal 0.000000e+000 -1.000000e+000 0.000000e+000
      outer loop
         vertex 1.890308e+002 0.000000e+000 3.512782e+002
         vertex 1.727707e+002 0.000000e+000 3.569704e+002
         vertex 1.840720e+002 0.000000e+000 3.404726e+002
      endloop
   endfacet
   facet normal 0.000000e+000 -1.000000e+000 0.000000e+000
      outer loop
         vertex 1.890308e+002 0.000000e+000 3.512782e+002
         vertex 1.840720e+002 0.000000e+000 3.404726e+002
         vertex 1.994549e+002 0.000000e+000 3.338312e+002
      endloop
   endfacet
   facet normal 0.000000e+000 -1.000000e+000 0.000000e+000
      outer loop
         vertex 1.994549e+002 0.000000e+000 3.338312e+002
         vertex 1.840720e+002 0.000000e+000 3.404726e+002
         vertex 1.938028e+002 0.000000e+000 3.230024e+002
      endloop
   endfacet
   facet normal 0.000000e+000 -1.000000e+000 0.000000e+000
      outer loop
         vertex 1.994549e+002 0.000000e+000 3.338312e+002
         vertex 1.938028e+002 0.000000e+000 3.230024e+002
         vertex 2.082730e+002 0.000000e+000 3.155202e+002
      endloop
   endfacet
   facet normal 0.000000e+000 -1.000000e+000 0.000000e+000
      outer loop
         vertex 2.082730e+002 0.000000e+000 3.155202e+002
         vertex 1.938028e+002 0.000000e+000 3.230024e+002
         vertex 2.018802e+002 0.000000e+000 3.047088e+002
      endloop
   endfacet
   facet normal 0.000000e+000 -1.000000e+000 0.000000e+000
      outer loop
         vertex 2.082730e+002 0.000000e+000 3.155202e+002
         vertex 2.018802e+002 0.000000e+000 3.047088e+002
         vertex 2.154143e+002 0.000000e+000 2.964923e+002
      endloop
   endfacet
   facet normal 0.000000e+000 -1.000000e+000 0.000000e+000
      outer loop
         vertex 2.154143e+002 0.000000e+000 2.964923e+002
         vertex 2.018802e+002 0.000000e+000 3.047088e+002
         vertex 2.082352e+002 0.000000e+000 2.857480e+002
      endloop
   endfacet
   facet normal 0.000000e+000 -1.000000e+000 0.000000e+000
      outer loop
         vertex 2.154143e+002 0.000000e+000 2.964923e+002
         vertex 2.082352e+002 0.000000e+000 2.857480e+002
         vertex 2.208212e+002 0.000000e+000 2.769010e+002
      endloop
   endfacet
   facet normal 0.000000e+000 -1.000000e+000 0.000000e+000
      outer loop
         vertex 2.208212e+002 0.000000e+000 2.769010e+002
         vertex 2.082352e+002 0.000000e+000 2.857480e+002
         vertex 2.128137e+002 0.000000e+000 2.662818e+002
      endloop
   endfacet
   facet normal 0.000000e+000 -1.000000e+000 0.000000e+000
      outer loop
         vertex 2.208212e+002 0.000000e+000 2.769010e+002
         vertex 2.128137e+002 0.000000e+000 2.662818e+002
         vertex 2.244501e+002 0.000000e+000 2.569038e+002
      endloop
   endfacet
   facet normal 0.000000e+000 -1.000000e+000 0.000000e+000
      outer loop
         vertex 2.244501e+002 0.000000e+000 2.569038e+002
         vertex 2.128137e+002 0.000000e+000 2.662818e+002
         vertex 2.155765e+002 0.000000e+000 2.464761e+002
      endloop
   endfacet
   facet normal 0.000000e+000 -1.000000e+000 0.000000e+000
      outer loop
         vertex 2.244501e+002 0.000000e+000 2.569038e+002
         vertex 2.155765e+002 0.000000e+000 2.464761e+002
         vertex 2.262719e+002 0.000000e+000 2.366619e+002
      endloop
   endfacet
   facet normal 0.000000e+000 -1.000000e+000 0.000000e+000
      outer loop
         vertex 2.262719e+002 0.000000e+000 2.366619e+002
         vertex 2.155765e+002 0.000000e+000 2.464761e+002
         vertex 2.165000e+002 0.000000e+000 2.265000e+002
      endloop
   endfacet
   facet normal 0.000000e+000 -1.000000e+000 0.000000e+000
      outer loop
         vertex 2.262719e+002 0.000000e+000 2.366619e+002
         vertex 2.165000e+002 0.000000e+000 2.265000e+002
         vertex 2.262719e+002 0.000000e+000 2.163381e+002
      endloop
   endfacet
   facet normal 0.000000e+000 -1.000000e+000 0.000000e+000
      outer loop
         vertex 2.262719e+002 0.000000e+000 2.163381e+002
         vertex 2.165000e+002 0.000000e+000 2.265000e+002
         vertex 2.244501e+002 0.000000e+000 1.960962e+002
      endloop
   endfacet
endsolid